<?xml version="1.0" encoding="utf-8"?>
<!-- Generator: Adobe Illustrator 16.2.1, SVG Export Plug-In . SVG Version: 6.00 Build 0)  -->
<!DOCTYPE svg PUBLIC "-//W3C//DTD SVG 1.1//EN" "http://www.w3.org/Graphics/SVG/1.1/DTD/svg11.dtd">
<svg version="1.1" id="Layer_1" xmlns="http://www.w3.org/2000/svg" xmlns:xlink="http://www.w3.org/1999/xlink" x="0px" y="0px"
	 width="168px" height="39px" viewBox="0 0 168 39" enable-background="new 0 0 168 39" xml:space="preserve">
<g>
	<rect x="1" y="1" fill="#FFFFFF" width="166" height="37"/>
	<path fill="#90624D" d="M166,2v35H2V2H166 M168,0H0v39h168V0L168,0z"/>
</g>
<g>
	<path fill="#90624D" d="M36.345,11.825l2.936,16.283h-1.192l-0.826-4.931h-3.395l-0.848,4.931h-1.193l2.958-16.283H36.345z
		 M35.795,14.623c-0.046-0.229-0.138-0.94-0.229-1.537c-0.023,0.229-0.046,0.436-0.069,0.666c-0.046,0.229-0.069,0.481-0.115,0.734
		l-1.33,7.637h3.004L35.795,14.623z"/>
	<path fill="#90624D" d="M43.087,11.894h1.376c4.334,0,5.091,1.995,5.091,6.651v3.601c0,1.949-0.137,2.752-0.344,3.349
		c-0.367,1.101-1.399,2.614-3.991,2.614h-2.133V11.894z M48.454,18.545c0-1.605-0.092-2.821-0.367-3.669
		c-0.665-1.926-2.316-1.926-3.875-1.926V27.1c1.468,0,2.156,0,2.958-0.573c0.619-0.459,1.284-1.193,1.284-4.289V18.545z"/>
	<path fill="#90624D" d="M54.233,11.894h1.376c4.334,0,5.091,1.995,5.091,6.651v3.601c0,1.949-0.137,2.752-0.344,3.349
		c-0.367,1.101-1.399,2.614-3.991,2.614h-2.133V11.894z M59.6,18.545c0-1.605-0.092-2.821-0.367-3.669
		c-0.665-1.926-2.316-1.926-3.875-1.926V27.1c1.468,0,2.156,0,2.958-0.573c0.619-0.459,1.284-1.193,1.284-4.289V18.545z"/>
	<path fill="#90624D" d="M77.854,11.894v1.032h-2.89v15.182H73.84V12.926H71.02v-1.032H77.854z"/>
	<path fill="#90624D" d="M81.133,15.518c0-1.261,0.207-1.995,0.574-2.522c0.619-0.895,1.651-1.262,2.775-1.262
		c1.031,0,2.041,0.344,2.614,1.193s0.573,1.949,0.573,2.936v8.921c0,0.665-0.068,1.536-0.527,2.225
		c-0.39,0.596-1.262,1.307-2.775,1.307c-3.234,0-3.234-2.66-3.234-3.669V15.518z M86.591,16.481c0-1.238-0.022-2.5-0.664-3.165
		c-0.367-0.367-0.941-0.573-1.514-0.573c-0.619,0-1.17,0.207-1.537,0.573c-0.665,0.642-0.665,1.651-0.665,1.972v8.922
		c0,1.536,0.184,2.201,0.872,2.706c0.367,0.252,0.825,0.39,1.33,0.39c0.413,0,0.78-0.092,1.078-0.275
		c0.986-0.55,1.101-1.582,1.101-2.66V16.481z"/>
	<path fill="#90624D" d="M99.065,15.655c0-1.238,0-2.156,0.85-2.981c0.664-0.734,1.514-0.917,2.361-0.917
		c0.643,0,1.285,0.138,1.812,0.459c0.504,0.298,1.262,0.94,1.262,2.66v2.271h-1.125c0-2.477,0-2.936-0.275-3.463
		c-0.297-0.597-0.916-0.895-1.559-0.895c-1.605,0-2.225,1.009-2.225,2.637v7.89c0,2.063,0,3.99,2.248,3.99
		c1.973,0,1.973-1.789,1.973-2.271v-2.5h1.146v2.5c0,0.826,0,3.325-3.303,3.325c-1.216,0-1.973-0.481-2.455-1.055
		c-0.48-0.597-0.711-1.262-0.711-2.866V15.655z"/>
	<path fill="#90624D" d="M113.376,11.825l2.936,16.283h-1.191l-0.826-4.931h-3.395l-0.848,4.931h-1.193l2.959-16.283H113.376z
		 M112.825,14.623c-0.045-0.229-0.137-0.94-0.229-1.537c-0.023,0.229-0.045,0.436-0.068,0.666c-0.047,0.229-0.068,0.481-0.115,0.734
		l-1.33,7.637h3.004L112.825,14.623z"/>
	<path fill="#90624D" d="M120.097,11.917h3.117c1.24,0,3.211,0.184,3.211,2.821v2.523c0,0.665,0,2.431-2.27,2.866l2.98,7.981h-1.191
		l-2.959-7.89h-1.766v7.89h-1.123V11.917z M121.22,12.88v6.375h2.041c1.262,0,1.973-0.504,1.973-1.72v-2.5
		c0-1.858-0.803-2.156-1.904-2.156H121.22z"/>
	<path fill="#90624D" d="M136.173,11.894v1.032h-2.891v15.182h-1.123V12.926h-2.822v-1.032H136.173z"/>
</g>
</svg>
