<?xml version="1.0" encoding="utf-8"?>
<!-- Generator: Adobe Illustrator 16.2.1, SVG Export Plug-In . SVG Version: 6.00 Build 0)  -->
<!DOCTYPE svg PUBLIC "-//W3C//DTD SVG 1.1//EN" "http://www.w3.org/Graphics/SVG/1.1/DTD/svg11.dtd">
<svg version="1.1" id="Layer_1" xmlns="http://www.w3.org/2000/svg" xmlns:xlink="http://www.w3.org/1999/xlink" x="0px" y="0px"
	 width="300px" height="47px" viewBox="0 0 300 47" enable-background="new 0 0 300 47" xml:space="preserve">
<path fill="#7F7F7F" d="M254.476,16.425c0.366,0.429,0.719,0.845,1.076,1.26c0.45,0.527,0.903,1.052,1.349,1.582
	c0.397,0.469,0.786,0.948,1.187,1.418c0.437,0.51,0.888,1.016,1.332,1.523c0.292,0.334,0.591,0.664,0.873,1.002
	c0.037,0.045,0.027,0.145-0.013,0.191c-0.461,0.539-0.932,1.071-1.398,1.608c-0.507,0.578-1.013,1.159-1.517,1.739
	c-0.506,0.585-1.008,1.167-1.513,1.751c-0.445,0.513-0.892,1.025-1.34,1.537c-0.028,0.033-0.047,0.072-0.082,0.135
	c0.336,0.102,0.658,0.21,0.991,0.292c0.05,0.015,0.163-0.084,0.218-0.145c0.477-0.543,0.955-1.085,1.42-1.634
	c0.446-0.516,0.877-1.039,1.324-1.56c0.439-0.51,0.893-1.01,1.331-1.519c0.339-0.392,0.663-0.79,1-1.182
	c0.257-0.3,0.525-0.59,0.787-0.886c0.097-0.108,0.144-0.215,0.03-0.342c-0.449-0.506-0.895-1.012-1.336-1.523
	c-0.382-0.443-0.747-0.895-1.131-1.337c-0.436-0.508-0.885-1.002-1.327-1.502c-0.25-0.285-0.498-0.569-0.737-0.859
	c-0.365-0.437-0.719-0.878-1.08-1.32c-0.062-0.078-0.126-0.158-0.19-0.233c-0.213-0.255-0.213-0.259-0.577-0.175
	C254.925,16.305,254.706,16.366,254.476,16.425z"/>
</svg>
