<?xml version="1.0" encoding="utf-8"?>
<!-- Generator: Adobe Illustrator 16.2.1, SVG Export Plug-In . SVG Version: 6.00 Build 0)  -->
<!DOCTYPE svg PUBLIC "-//W3C//DTD SVG 1.1//EN" "http://www.w3.org/Graphics/SVG/1.1/DTD/svg11.dtd">
<svg version="1.1" id="Layer_1" xmlns="http://www.w3.org/2000/svg" xmlns:xlink="http://www.w3.org/1999/xlink" x="0px" y="0px"
	 width="202.667px" height="50.667px" viewBox="0 0 202.667 50.667" enable-background="new 0 0 202.667 50.667"
	 xml:space="preserve">
<g>
	<path fill="#382C2D" d="M9.476,39.452c1.751-0.179,2.875-0.575,3.372-1.188s0.745-2.037,0.745-4.269v-17.2
		c0-1.53-0.241-2.526-0.724-2.987c-0.483-0.462-1.579-0.734-3.29-0.817v-0.786h8.354l9.731,21.105l9.493-21.105h8.421v0.786
		c-1.572,0.111-2.586,0.396-3.042,0.858c-0.455,0.461-0.683,1.443-0.683,2.946v18.833c0,1.544,0.228,2.533,0.683,2.967
		c0.455,0.435,1.469,0.72,3.042,0.858v0.786H33.723v-0.786c1.71-0.138,2.776-0.444,3.197-0.92c0.42-0.475,0.631-1.609,0.631-3.401
		V16.112L26.699,40.238H26.12L15.455,17.104v16.89c0,2.315,0.338,3.824,1.014,4.527c0.441,0.455,1.428,0.765,2.958,0.93v0.786H9.476
		V39.452z"/>
	<path fill="#382C2D" d="M53.083,39.452c1.751-0.179,2.875-0.575,3.372-1.188s0.745-2.037,0.745-4.269V15.326l-0.579-0.682
		c-0.621-0.73-1.148-1.181-1.583-1.354c-0.435-0.172-1.086-0.272-1.955-0.3v-0.786h7.229l16.355,20.273V18.396
		c0-2.316-0.345-3.823-1.034-4.522c-0.455-0.452-1.462-0.747-3.021-0.884v-0.786h9.951v0.786c-1.614,0.166-2.689,0.559-3.228,1.18
		c-0.538,0.621-0.807,2.041-0.807,4.262v22.303h-0.724L59.062,17.5v16.495c0,2.315,0.338,3.824,1.014,4.526
		c0.441,0.455,1.428,0.765,2.958,0.93v0.786h-9.951V39.452z"/>
	<path fill="#382C2D" d="M89.82,39.452c1.655-0.179,2.689-0.484,3.104-0.916c0.414-0.433,0.621-1.562,0.621-3.387V16.797
		c0-1.517-0.231-2.503-0.693-2.958c-0.462-0.455-1.473-0.738-3.031-0.849v-0.786h11.751v0.786c-1.55,0.111-2.558,0.394-3.024,0.849
		s-0.7,1.441-0.7,2.958v8.255h12.869v-8.255c0-1.517-0.228-2.503-0.683-2.958c-0.456-0.455-1.469-0.738-3.042-0.849v-0.786h11.751
		v0.786c-1.559,0.111-2.569,0.394-3.031,0.849c-0.462,0.455-0.693,1.441-0.693,2.958v18.848c0,1.536,0.231,2.521,0.693,2.953
		c0.462,0.432,1.472,0.717,3.031,0.854v0.786h-11.751v-0.786c1.669-0.165,2.707-0.466,3.114-0.906
		c0.407-0.439,0.61-1.572,0.61-3.397v-8.234H97.847v8.731c0,1.536,0.233,2.524,0.7,2.963s1.474,0.72,3.024,0.844v0.786H89.82V39.452
		z"/>
	<path fill="#382C2D" d="M126.496,12.204h23.957l0.229,7.2h-1.014c-0.497-2.262-1.128-3.734-1.894-4.417
		c-0.765-0.683-2.376-1.024-4.831-1.024h-2.359v21.682c0,1.632,0.255,2.644,0.766,3.035s1.627,0.648,3.352,0.771v0.786h-12.351
		v-0.786c1.793-0.137,2.91-0.432,3.352-0.885s0.662-1.592,0.662-3.418V13.963h-2.379c-2.345,0-3.941,0.338-4.79,1.014
		s-1.486,2.152-1.914,4.427h-1.035L126.496,12.204z"/>
	<path fill="#382C2D" d="M157.958,39.452c1.751-0.179,2.876-0.575,3.372-1.188s0.744-2.037,0.744-4.269V15.326l-0.578-0.682
		c-0.621-0.73-1.148-1.181-1.584-1.354c-0.434-0.172-1.086-0.272-1.954-0.3v-0.786h7.229l16.355,20.273V18.396
		c0-2.316-0.344-3.823-1.035-4.522c-0.455-0.452-1.461-0.747-3.02-0.884v-0.786h9.951v0.786c-1.613,0.166-2.689,0.559-3.227,1.18
		c-0.539,0.621-0.809,2.041-0.809,4.262v22.303h-0.723L163.938,17.5v16.495c0,2.315,0.338,3.824,1.014,4.526
		c0.441,0.455,1.428,0.765,2.957,0.93v0.786h-9.95V39.452z"/>
	<path fill="#382C2D" d="M190.773,40.041c-0.455-0.462-0.683-1.017-0.683-1.665s0.23-1.2,0.693-1.655
		c0.462-0.455,1.017-0.683,1.665-0.683s1.2,0.228,1.655,0.683s0.683,1.007,0.683,1.655s-0.225,1.203-0.673,1.665
		c-0.448,0.462-1.003,0.693-1.665,0.693S191.229,40.503,190.773,40.041z"/>
</g>
</svg>
