<?xml version="1.0" encoding="utf-8"?>
<!-- Generator: Adobe Illustrator 16.2.1, SVG Export Plug-In . SVG Version: 6.00 Build 0)  -->
<!DOCTYPE svg PUBLIC "-//W3C//DTD SVG 1.1//EN" "http://www.w3.org/Graphics/SVG/1.1/DTD/svg11.dtd">
<svg version="1.1" id="Layer_1" xmlns="http://www.w3.org/2000/svg" xmlns:xlink="http://www.w3.org/1999/xlink" x="0px" y="0px"
	 width="200px" height="100px" viewBox="0 0 200 100" enable-background="new 0 0 200 100" xml:space="preserve">
<g>
	<g>
		<g>
			<g>
				<path fill="#90624D" d="M87.247,20.298c0.144,0.875-0.368,1.471-0.688,1.75c-0.879,0.77-2.508,1.071-3.705,0.238
					c-0.753-0.524-1.61-1.689-1.41-4.254c0.468-6.057,9.139-11.371,18.555-11.371c9.42,0,18.091,5.313,18.558,11.371
					c0.197,2.565-0.657,3.729-1.41,4.254c-1.198,0.833-2.823,0.531-3.707-0.238c-0.317-0.279-0.831-0.874-0.687-1.75l0,0
					c0.026-0.152-0.056-0.299-0.183-0.331c-0.126-0.03-0.249,0.067-0.271,0.222l0,0c-0.145,0.863,0.173,1.71,0.866,2.316
					c0.989,0.863,2.801,1.25,4.211,0.27c1.234-0.857,1.815-2.559,1.643-4.795c-0.247-3.211-2.642-7.026-6.178-9.116
					c-3.608-2.131-7.272-3.214-11.733-3.214c-4.46,0-10.22,1.555-13.824,3.697c-3.832,2.278-6.056,5.421-6.303,8.633
					c-0.173,2.236,0.41,3.937,1.645,4.795c1.412,0.981,3.221,0.594,4.207-0.27c0.696-0.606,1.015-1.453,0.871-2.316l0,0
					c-0.025-0.155-0.149-0.252-0.274-0.222C87.305,19.999,87.221,20.146,87.247,20.298L87.247,20.298z"/>
			</g>
		</g>
		<g>
			<g>
				<path fill="#90624D" d="M151.91,67.986c-0.11-1.605-1.153-3.124-2.689-3.996c-1.763-1.003-3.907-0.91-6.035,0.263
					c-0.103,0.059-0.142,0.189-0.086,0.294c0.058,0.103,0.192,0.142,0.296,0.083c1.99-1.097,3.985-1.192,5.61-0.264
					c1.391,0.786,2.353,2.282,2.401,3.725c0.072,2.126-0.65,5.496-7.158,6.6c-1.951,0.332-3.823,0.231-5.577-0.121
					c0.023-0.305,0.018-0.613-0.008-0.922c-0.196-1.94-1.688-3.802-3.631-4.521c-2.322-0.862-4.972-0.436-7.194,0.449
					c-0.499-0.314-1.027-0.657-1.578-1.018c-3.503-2.279-8.325-5.286-12.371-5.743c-2.962-0.335-5.272,0.933-6.392,1.832
					c-1.315,1.061-2.196,2.585-2.349,4.084c-0.012,0.118,0.074,0.223,0.19,0.236c0.121,0.013,0.229-0.074,0.239-0.194
					c0.143-1.386,0.857-2.577,2.083-3.563c1.053-0.85,3.044-1.664,5.843-1.245c3.83,0.575,8.216,3.299,11.685,5.555
					c0.388,0.252,0.797,0.497,1.199,0.727c-0.439,0.231-0.853,0.473-1.224,0.722c-0.604,0.401-1.362,0.934-2.243,1.549
					c-0.2,0.139-0.405,0.282-0.612,0.427c-0.248-0.18-0.501-0.362-0.762-0.55c-7.347-5.336-13.745-3.866-16.163-0.705
					c-1.878,2.455-1.311,4.821-0.805,6.012c0.782,1.843,2.468,3.36,3.92,3.525c0.12,0.015,0.224-0.072,0.238-0.188
					c0.014-0.12-0.069-0.226-0.189-0.239c-1.309-0.152-2.846-1.557-3.572-3.266c-0.468-1.106-0.995-3.3,0.75-5.583
					c2.295-3.001,7.818-3.439,14.963,1.688c0.104,0.072,0.2,0.144,0.304,0.215c-0.987,0.68-2.003,1.364-2.966,1.984
					c-1.132-1.143-2.562-1.955-4.019-2.128c-1.785-0.209-2.729,0.334-3.202,0.823c-0.588,0.608-0.763,1.448-0.675,2.012
					c0.097,0.638,0.57,1.231,1.261,1.591c0.635,0.329,2.005,0.729,4.026-0.283c0.74-0.368,1.594-0.87,2.498-1.437
					c0.388,0.515,0.711,1.106,0.952,1.771c0.955,2.627,0.43,5.629-1.307,7.466c-3.052,3.232-7.747,3.967-11.419,1.782
					c-0.422-0.249-0.85-0.574-1.266-0.947c0.011-0.061,0.022-0.119,0.028-0.18c0.242-1.835-0.402-5.46-1.742-6.519
					c-0.406-0.323-0.866-0.396-1.327-0.222c-0.457,0.175-0.725,0.558-0.772,1.107c-0.133,1.555,1.447,4.27,3.32,6.104
					c-0.429,2.06-1.865,4.645-4.31,6.216c-0.036,0.023-0.071,0.047-0.071,0.047s-0.046-0.023-0.081-0.047
					c-2.444-1.571-3.881-4.156-4.312-6.216c1.877-1.835,3.457-4.55,3.324-6.104c-0.048-0.55-0.316-0.933-0.775-1.107
					s-0.918-0.102-1.324,0.222c-1.343,1.059-1.982,4.684-1.745,6.519c0.009,0.061,0.021,0.119,0.029,0.18
					c-0.415,0.373-0.843,0.698-1.267,0.947c-3.668,2.185-8.364,1.45-11.415-1.782c-1.736-1.837-2.263-4.839-1.307-7.466
					c0.241-0.664,0.562-1.256,0.95-1.771c0.905,0.566,1.762,1.068,2.497,1.437c2.022,1.012,3.393,0.612,4.028,0.283
					c0.69-0.359,1.163-0.953,1.263-1.591c0.085-0.563-0.091-1.403-0.677-2.012c-0.475-0.489-1.417-1.032-3.202-0.823
					c-1.458,0.173-2.889,0.985-4.019,2.128c-0.964-0.62-1.979-1.305-2.966-1.984c0.103-0.071,0.201-0.143,0.306-0.215
					c7.142-5.128,12.665-4.689,14.959-1.688c1.746,2.283,1.221,4.477,0.751,5.583c-0.725,1.709-2.261,3.113-3.572,3.266
					c-0.117,0.014-0.203,0.119-0.19,0.239c0.015,0.115,0.121,0.202,0.239,0.188c1.452-0.165,3.138-1.683,3.92-3.525
					c0.507-1.19,1.075-3.557-0.805-6.012c-2.417-3.161-8.814-4.631-16.165,0.705c-0.258,0.188-0.511,0.37-0.76,0.55
					c-0.206-0.145-0.41-0.288-0.611-0.427c-0.879-0.615-1.639-1.147-2.245-1.549c-0.369-0.249-0.782-0.49-1.223-0.722
					c0.402-0.229,0.812-0.475,1.199-0.727c3.47-2.256,7.854-4.979,11.686-5.555c2.797-0.419,4.788,0.396,5.843,1.245
					c1.227,0.986,1.939,2.178,2.082,3.563c0.015,0.12,0.118,0.207,0.237,0.194c0.12-0.014,0.204-0.118,0.192-0.236
					c-0.155-1.499-1.032-3.023-2.347-4.084c-1.12-0.899-3.434-2.167-6.393-1.832c-4.046,0.457-8.868,3.464-12.371,5.743
					c-0.552,0.36-1.08,0.703-1.579,1.018c-2.222-0.885-4.87-1.312-7.193-0.449c-1.942,0.72-3.435,2.581-3.628,4.521
					c-0.031,0.309-0.034,0.617-0.013,0.922c-1.753,0.353-3.623,0.453-5.574,0.121c-6.509-1.104-7.23-4.474-7.159-6.6
					c0.048-1.442,1.013-2.938,2.398-3.725c1.628-0.929,3.621-0.833,5.614,0.264c0.104,0.059,0.235,0.02,0.293-0.083
					c0.058-0.104,0.02-0.235-0.083-0.294c-2.129-1.173-4.273-1.266-6.037-0.263c-1.535,0.872-2.578,2.391-2.688,3.996
					c-0.287,4.216,2.488,6.992,7.471,7.949c2.079,0.398,4.113,0.29,6.034-0.113c0.331,0.909,0.955,1.723,1.913,2.316
					c4.035,2.498,7.466,1.405,15.125-4.018c1.007,0.691,2.047,1.397,3.039,2.032c-0.633,0.706-1.154,1.515-1.499,2.369
					c-1.244,3.064-0.313,6.282,1.532,8.236c3.192,3.378,8.702,3.741,12.546,1.147c0.333-0.224,0.666-0.491,0.995-0.787
					c0.514,2.109,1.995,5.462,4.443,7.034c0.099,0.064,0.327,0.207,0.334,0.196c0.002,0.011,0.187-0.132,0.285-0.196
					c2.449-1.572,3.932-4.925,4.444-7.034c0.327,0.296,0.662,0.563,0.996,0.787c3.843,2.594,9.354,2.23,12.543-1.147
					c1.847-1.954,2.777-5.172,1.533-8.236c-0.346-0.854-0.865-1.663-1.499-2.369c0.994-0.635,2.034-1.341,3.039-2.032
					c7.662,5.423,11.089,6.516,15.127,4.018c0.956-0.594,1.582-1.407,1.913-2.316c1.919,0.403,3.955,0.512,6.034,0.113
					C149.419,74.979,152.196,72.202,151.91,67.986z M115.229,77.466c-1.854,0.928-3.075,0.579-3.636,0.286
					c-0.572-0.295-0.96-0.771-1.035-1.276c-0.052-0.341,0.003-1.068,0.557-1.644c0.586-0.604,1.567-0.843,2.845-0.695
					c1.477,0.174,2.747,0.858,3.686,1.938C116.767,76.627,115.942,77.11,115.229,77.466z M86.04,74.137
					c1.275-0.147,2.259,0.092,2.842,0.695c0.554,0.575,0.612,1.303,0.56,1.644c-0.078,0.505-0.464,0.981-1.032,1.276
					c-0.565,0.293-1.788,0.642-3.64-0.286c-0.711-0.355-1.537-0.839-2.416-1.392C83.293,74.995,84.562,74.311,86.04,74.137z
					 M61.766,73.689c0.179-1.781,1.554-3.493,3.351-4.161c2.111-0.784,4.516-0.438,6.586,0.333
					c-0.188,0.117-0.371,0.229-0.547,0.335l-0.156,0.094c-2.284,1.358-5.482,3.332-9.233,4.187
					C61.739,74.218,61.739,73.956,61.766,73.689z M63.908,77.572c-0.852-0.483-1.453-1.125-1.803-1.859
					c3.84-0.914,7.187-2.935,9.447-4.278l0.479-0.288c0.33-0.194,0.722-0.414,1.135-0.648c0.516,0.261,0.999,0.544,1.428,0.828
					c0.599,0.4,1.357,0.929,2.236,1.542c0.159,0.111,0.321,0.226,0.485,0.34C70.879,77.812,67.426,79.557,63.908,77.572z
					 M97.103,80.127c0.287-0.229,0.584-0.281,0.901-0.16c0.304,0.116,0.466,0.358,0.5,0.744c0.115,1.34-1.294,3.732-2.998,5.41
					C95.322,84.343,95.938,81.046,97.103,80.127z M104.494,86.121c-1.708-1.678-3.114-4.07-2.999-5.41
					c0.032-0.386,0.198-0.628,0.497-0.744c0.322-0.121,0.614-0.069,0.905,0.16C104.061,81.046,104.675,84.343,104.494,86.121z
					 M134.884,69.528c1.792,0.668,3.174,2.38,3.35,4.161c0.026,0.267,0.022,0.528,0,0.787c-3.752-0.854-6.949-2.828-9.233-4.187
					l-0.156-0.094c-0.176-0.105-0.359-0.219-0.55-0.335C130.366,69.091,132.773,68.744,134.884,69.528z M136.09,77.572
					c-3.516,1.984-6.972,0.24-13.408-4.364c0.163-0.114,0.327-0.229,0.485-0.34c0.876-0.613,1.638-1.142,2.239-1.542
					c0.427-0.284,0.909-0.567,1.423-0.828c0.418,0.234,0.808,0.454,1.139,0.648l0.479,0.288c2.26,1.344,5.607,3.364,9.446,4.278
					C137.545,76.447,136.943,77.089,136.09,77.572z"/>
				<path fill="#90624D" d="M106.323,31.473c1.23,3.152,5.125,5.958,10.044,5.001c1.979-0.383,3.427-1.282,4.426-2.314
					c0.472,0.766,1.088,1.553,1.871,2.326c2.031,2.004,6.121,3.839,10.674,3.422c1.667-0.15,3.771-0.659,5.792-2.017
					c6.321,4.142,11.774,6.548,17.153,4.771c3.065-1.011,5.519-3.203,6.23-6.114c0.598-2.441,0.126-5.11-1.188-6.781
					c-1.735-2.211-4.903-3.015-7.417-2.263c-1.857,0.554-3.28,1.854-3.96,3.47c-0.045,0.107,0.006,0.229,0.113,0.273
					c0.105,0.045,0.229-0.004,0.274-0.111c0.623-1.484,1.992-2.527,3.756-2.86c2.279-0.431,4.73,0.368,6.4,2.081
					c1.382,1.422,1.891,3.732,1.327,6.033c-0.678,2.768-2.742,4.909-5.67,5.876c-5.07,1.675-10.091-1.042-16.063-5.09
					c0.833-0.689,1.634-1.538,2.371-2.59c0.121-0.175,0.227-0.349,0.333-0.522c2.347,1.361,4.212,2.199,5.787,2.704
					c2.756,0.889,5.403,0.201,7.241-1.374c0.089-0.077,0.096-0.208,0.021-0.296c-0.073-0.087-0.209-0.097-0.298-0.021
					c-2.658,2.282-5.824,1.89-12.18-2.041c1.764-3.711,0.703-7.343-1.064-9.672c-2.604-3.432-6.966-4.823-10.858-3.46
					c-0.107,0.039-0.166,0.157-0.128,0.268c0.038,0.109,0.158,0.167,0.266,0.129c4.298-1.505,8.843,1.048,10.31,3.756
					c1.196,2.207,1.611,5.288,0.329,8.254c-1.296-0.834-2.718-1.802-4.278-2.911c-9.353-6.628-21.029-13.547-28.349-8.156
					C105.582,24.196,105.117,28.377,106.323,31.473z M120.816,33.361c-0.813-1.536-1.007-2.925-0.623-3.719
					c0.212-0.443,0.593-0.644,1.105-0.582c0.491,0.06,0.808,0.552,0.838,1.287C122.167,31.196,121.783,32.342,120.816,33.361z
					 M109.837,21.583c6.453-4.612,17.921,2.16,27.16,8.708c1.733,1.23,3.275,2.25,4.663,3.101c-0.179,0.299-0.366,0.6-0.584,0.894
					c-0.625,0.857-1.307,1.58-2.015,2.188c-0.736-0.505-1.485-1.028-2.255-1.565c-1.361-0.951-2.771-1.934-4.242-2.924
					c-8.396-5.647-13.559-7.72-16.737-6.723c-1.414,0.444-2.426,1.494-3.094,3.208c-0.039,0.108,0.013,0.228,0.122,0.27
					c0.106,0.043,0.229-0.01,0.27-0.119c0.615-1.588,1.417-2.375,2.608-2.655c3.069-0.714,8.134,1.575,16.303,7.069
					c1.469,0.987,2.876,1.968,4.236,2.918c0.621,0.434,1.234,0.856,1.84,1.264c-1.589,1.115-3.263,1.714-4.787,1.931
					c-4.395,0.63-8.404-1.024-10.367-2.959c-0.784-0.773-1.406-1.577-1.874-2.355c1.05-1.23,1.5-2.59,1.472-3.501
					c-0.037-0.941-0.508-1.602-1.208-1.687c-0.694-0.084-1.24,0.206-1.529,0.813c-0.438,0.905-0.256,2.475,0.686,4.208
					c-0.89,0.809-2.182,1.505-3.982,1.855c-4.691,0.91-8.217-1.851-9.512-4.8C105.88,28.142,105.988,24.333,109.837,21.583z"/>
				<path fill="#90624D" d="M90.41,21.245c-7.319-5.391-18.995,1.528-28.348,8.156c-1.562,1.108-2.981,2.076-4.275,2.911
					c-1.286-2.966-0.871-6.047,0.326-8.254c1.465-2.708,6.01-5.262,10.307-3.756c0.11,0.038,0.229-0.021,0.269-0.129
					c0.038-0.11-0.019-0.229-0.13-0.268c-3.892-1.363-8.254,0.028-10.856,3.46c-1.768,2.33-2.828,5.961-1.064,9.672
					c-6.355,3.93-9.521,4.322-12.183,2.041c-0.089-0.076-0.221-0.065-0.296,0.021c-0.075,0.088-0.067,0.219,0.022,0.296
					c1.837,1.575,4.482,2.262,7.241,1.374c1.572-0.505,3.439-1.343,5.786-2.704c0.106,0.173,0.212,0.347,0.333,0.522
					c0.736,1.052,1.539,1.901,2.371,2.59c-5.975,4.049-10.994,6.766-16.065,5.09c-2.925-0.967-4.991-3.108-5.668-5.876
					c-0.564-2.3-0.055-4.61,1.327-6.033c1.669-1.713,4.121-2.512,6.4-2.081c1.763,0.333,3.133,1.375,3.756,2.86
					c0.046,0.106,0.168,0.156,0.273,0.111c0.106-0.044,0.157-0.166,0.112-0.273c-0.679-1.616-2.101-2.916-3.956-3.47
					c-2.515-0.751-5.685,0.052-7.42,2.263c-1.313,1.671-1.783,4.34-1.187,6.781c0.712,2.911,3.164,5.103,6.23,6.114
					c5.376,1.778,10.832-0.629,17.154-4.771c2.021,1.358,4.124,1.866,5.792,2.017c4.553,0.417,8.64-1.417,10.671-3.422
					c0.784-0.773,1.4-1.561,1.874-2.326c0.996,1.032,2.444,1.931,4.425,2.314c4.916,0.956,8.812-1.85,10.043-5.001
					C94.882,28.377,94.419,24.196,90.41,21.245z M77.865,30.347c0.026-0.735,0.347-1.228,0.834-1.287
					c0.512-0.062,0.895,0.139,1.106,0.582c0.383,0.794,0.189,2.184-0.621,3.719C78.216,32.342,77.833,31.196,77.865,30.347z
					 M92.99,30.722c-1.295,2.949-4.821,5.709-9.513,4.8c-1.801-0.35-3.094-1.047-3.983-1.855c0.943-1.733,1.125-3.303,0.688-4.208
					c-0.293-0.608-0.837-0.898-1.532-0.813c-0.698,0.085-1.172,0.746-1.206,1.687c-0.032,0.911,0.422,2.271,1.472,3.501
					c-0.468,0.779-1.092,1.582-1.875,2.355c-1.963,1.936-5.973,3.59-10.369,2.959c-1.521-0.217-3.196-0.816-4.785-1.931
					c0.604-0.408,1.218-0.83,1.84-1.264c1.362-0.951,2.77-1.932,4.238-2.918c8.168-5.494,13.232-7.783,16.301-7.069
					c1.191,0.279,1.992,1.067,2.608,2.655c0.042,0.109,0.163,0.162,0.271,0.119c0.107-0.042,0.162-0.161,0.121-0.27
					c-0.667-1.714-1.68-2.764-3.094-3.208c-3.179-0.997-8.341,1.076-16.736,6.723c-1.473,0.99-2.881,1.974-4.244,2.924
					c-0.768,0.537-1.518,1.06-2.255,1.565c-0.709-0.608-1.388-1.331-2.015-2.188c-0.217-0.294-0.404-0.594-0.582-0.894
					c1.387-0.851,2.929-1.871,4.662-3.101c9.239-6.547,20.707-13.319,27.16-8.708C94.011,24.333,94.121,28.142,92.99,30.722z"/>
				<g>
					<g>
						<path fill="#90624D" d="M74.334,61.274c-4.41,3.739-12.769,6.058-21.815,6.058c-13.742,0-25.038-5.153-25.038-11.604
							c0-6.446,11.296-11.784,25.038-11.784c3.201,0,6.32,0.283,9.267,0.841l0,0c0.133,0.024,0.262-0.063,0.286-0.196
							c0.026-0.131-0.062-0.26-0.195-0.284l0,0c-2.978-0.563-8.104-1.286-11.362-1.286c-14.011,0-23.406,5.902-23.406,12.619
							c0,6.718,10.914,13.018,25.47,12.909c9.158-0.065,17.578-3.091,22.073-6.898l0,0c0.102-0.084,0.115-0.241,0.026-0.343
							C74.591,61.203,74.436,61.189,74.334,61.274L74.334,61.274z"/>
					</g>
					<g>
						<path fill="#90624D" d="M125.667,61.274c4.408,3.739,12.769,6.058,21.812,6.058c13.744,0,25.039-5.153,25.039-11.604
							c0-6.446-11.295-11.784-25.039-11.784c-3.199,0-6.319,0.283-9.266,0.841l0,0c-0.135,0.024-0.261-0.063-0.284-0.196
							c-0.027-0.131,0.06-0.26,0.193-0.284l0,0c2.979-0.563,8.104-1.286,11.363-1.286c14.011,0,23.406,5.902,23.406,12.619
							c0,6.718-10.913,13.018-25.47,12.909c-9.158-0.065-17.578-3.091-22.074-6.898l0,0c-0.102-0.084-0.114-0.241-0.024-0.343
							C125.408,61.203,125.562,61.189,125.667,61.274L125.667,61.274z"/>
					</g>
				</g>
				<g>
					<path fill="#90624D" d="M112.459,23.768c1.374-1.358,2.302-2.871,2.336-4.472c0.104-5.142-5.415-9.135-14.737-8.974
						c-7.991,0.137-14.786,4.117-14.786,8.922c0,2.999,1.714,6.134,6.053,7.661c3.637,1.279,10.481,0.032,12.116-2.743l0,0
						c0.052-0.091,0.023-0.211-0.069-0.264c-0.093-0.056-0.209-0.024-0.263,0.068l0,0c-1.548,2.631-7.499,3.448-10.98,2.158
						c-3.812-1.409-6.182-4.047-6.182-6.881c0-4.592,5.838-8.551,13.952-8.307c7.07,0.215,14.253,3.431,14.272,8.307
						c0.006,1.495-0.685,2.966-1.984,4.249l0,0c-0.074,0.074-0.074,0.197,0,0.273C112.262,23.842,112.383,23.842,112.459,23.768
						L112.459,23.768z"/>
				</g>
			</g>
		</g>
	</g>
	<g>
		<path fill="#90624D" d="M94.288,18.708h-1.341v-0.151c0.049-0.002,0.111-0.006,0.188-0.016c0.075-0.008,0.127-0.021,0.155-0.036
			c0.045-0.026,0.078-0.058,0.1-0.094c0.019-0.033,0.031-0.077,0.031-0.131v-2.204h-0.034l-1.033,2.583h-0.106l-0.986-2.637h-0.027
			v1.81c0,0.175,0.011,0.309,0.034,0.4c0.021,0.09,0.055,0.156,0.101,0.196c0.032,0.03,0.097,0.059,0.194,0.087
			c0.1,0.025,0.163,0.04,0.192,0.042v0.151h-1.224v-0.151c0.063-0.005,0.132-0.017,0.202-0.033c0.069-0.014,0.125-0.038,0.163-0.069
			c0.05-0.04,0.084-0.101,0.103-0.184c0.018-0.084,0.028-0.221,0.028-0.414v-1.552c0-0.09-0.012-0.163-0.032-0.22
			c-0.022-0.057-0.053-0.102-0.092-0.139c-0.044-0.039-0.1-0.066-0.163-0.086c-0.064-0.018-0.128-0.029-0.19-0.031v-0.153h1.034
			l0.867,2.276l0.743-1.903c0.026-0.07,0.05-0.143,0.068-0.219c0.02-0.076,0.029-0.126,0.03-0.154h0.99v0.153
			c-0.041,0.001-0.092,0.006-0.153,0.02c-0.062,0.01-0.106,0.021-0.135,0.031c-0.049,0.018-0.082,0.046-0.101,0.085
			c-0.016,0.041-0.025,0.084-0.025,0.131v2.185c0,0.051,0.01,0.092,0.025,0.128c0.019,0.034,0.052,0.062,0.101,0.088
			c0.023,0.015,0.069,0.028,0.136,0.042c0.064,0.011,0.117,0.017,0.156,0.019V18.708z"/>
		<path fill="#90624D" d="M98.093,15.828c-0.04,0.001-0.101,0.013-0.184,0.034c-0.082,0.022-0.142,0.044-0.178,0.066
			c-0.051,0.035-0.085,0.103-0.104,0.205c-0.017,0.102-0.027,0.229-0.027,0.385v2.22h-0.185l-1.838-2.48v1.563
			c0,0.175,0.012,0.31,0.034,0.403c0.021,0.095,0.056,0.162,0.101,0.201c0.032,0.032,0.1,0.061,0.203,0.089
			c0.103,0.025,0.171,0.04,0.204,0.042v0.151h-1.245v-0.151c0.038-0.002,0.104-0.017,0.195-0.042
			c0.092-0.024,0.147-0.046,0.17-0.068c0.05-0.039,0.085-0.1,0.104-0.181c0.02-0.083,0.027-0.224,0.027-0.421v-1.494
			c0-0.065-0.011-0.13-0.033-0.195c-0.023-0.066-0.055-0.117-0.093-0.153c-0.052-0.046-0.12-0.087-0.207-0.119
			c-0.088-0.035-0.16-0.054-0.214-0.056v-0.153h0.866l1.704,2.313v-1.442c0-0.176-0.011-0.312-0.034-0.409
			c-0.022-0.092-0.057-0.156-0.098-0.186c-0.041-0.028-0.104-0.054-0.196-0.08c-0.09-0.026-0.159-0.041-0.206-0.043v-0.153h1.232
			V15.828z"/>
		<path fill="#90624D" d="M101.715,18.708h-1.258v-0.151c0.035-0.002,0.084-0.006,0.148-0.013c0.065-0.005,0.109-0.013,0.133-0.025
			c0.044-0.017,0.075-0.043,0.095-0.077c0.02-0.035,0.03-0.082,0.03-0.136v-1.08h-1.425v1.055c0,0.051,0.008,0.092,0.024,0.128
			c0.016,0.034,0.049,0.062,0.097,0.088c0.025,0.014,0.068,0.027,0.13,0.04c0.062,0.012,0.111,0.019,0.146,0.021v0.151h-1.259
			v-0.151c0.034-0.002,0.084-0.006,0.149-0.013c0.065-0.005,0.109-0.013,0.134-0.025c0.042-0.017,0.075-0.043,0.094-0.077
			c0.021-0.035,0.029-0.082,0.029-0.136v-2.189c0-0.043-0.009-0.086-0.027-0.124c-0.018-0.038-0.05-0.067-0.096-0.089
			c-0.038-0.018-0.085-0.034-0.141-0.048c-0.055-0.014-0.101-0.024-0.143-0.026v-0.153h1.259v0.153
			c-0.039,0.001-0.089,0.006-0.146,0.02c-0.058,0.01-0.102,0.021-0.13,0.031c-0.048,0.018-0.081,0.046-0.097,0.085
			c-0.017,0.041-0.024,0.084-0.024,0.131v0.94h1.425v-0.92c0-0.043-0.01-0.086-0.029-0.124c-0.017-0.038-0.05-0.067-0.096-0.089
			c-0.037-0.018-0.084-0.034-0.139-0.048c-0.056-0.014-0.103-0.024-0.143-0.026v-0.153h1.258v0.153
			c-0.037,0.001-0.089,0.006-0.146,0.02c-0.057,0.01-0.099,0.021-0.129,0.031c-0.048,0.018-0.078,0.046-0.096,0.085
			c-0.018,0.041-0.026,0.084-0.026,0.131v2.185c0,0.051,0.009,0.092,0.026,0.128c0.018,0.034,0.048,0.062,0.096,0.088
			c0.025,0.014,0.067,0.027,0.129,0.04c0.061,0.012,0.112,0.019,0.146,0.021V18.708z"/>
		<path fill="#90624D" d="M104.934,16.498h-0.148c-0.012-0.05-0.034-0.11-0.066-0.182c-0.034-0.071-0.073-0.138-0.114-0.201
			c-0.045-0.064-0.09-0.121-0.141-0.171c-0.051-0.049-0.099-0.077-0.146-0.085c-0.043-0.005-0.101-0.008-0.167-0.011
			c-0.069-0.003-0.13-0.005-0.185-0.005h-0.128v2.425c0,0.045,0.012,0.09,0.032,0.129c0.02,0.038,0.054,0.069,0.104,0.089
			c0.026,0.011,0.079,0.023,0.162,0.042c0.081,0.016,0.146,0.025,0.191,0.027v0.151h-1.432v-0.151
			c0.038-0.002,0.1-0.008,0.182-0.017c0.082-0.009,0.138-0.02,0.171-0.032c0.047-0.019,0.081-0.045,0.103-0.081
			c0.022-0.035,0.033-0.082,0.033-0.139v-2.444h-0.122c-0.047,0-0.101,0.002-0.167,0.002c-0.064,0.003-0.13,0.008-0.188,0.013
			c-0.045,0.008-0.094,0.035-0.146,0.085c-0.052,0.052-0.095,0.108-0.14,0.171c-0.044,0.065-0.082,0.133-0.113,0.206
			c-0.032,0.071-0.057,0.13-0.069,0.177h-0.148v-0.823h2.643V16.498z"/>
		<path fill="#90624D" d="M108.588,15.828c-0.043,0.001-0.102,0.013-0.186,0.034c-0.082,0.022-0.139,0.044-0.177,0.066
			c-0.049,0.035-0.086,0.103-0.101,0.205c-0.021,0.102-0.028,0.229-0.028,0.385v2.22h-0.187l-1.839-2.48v1.563
			c0,0.175,0.013,0.31,0.034,0.403c0.021,0.095,0.055,0.162,0.102,0.201c0.034,0.032,0.102,0.061,0.204,0.089
			c0.103,0.025,0.169,0.04,0.2,0.042v0.151h-1.241v-0.151c0.038-0.002,0.104-0.017,0.194-0.042c0.093-0.024,0.148-0.046,0.17-0.068
			c0.051-0.039,0.084-0.1,0.104-0.181c0.018-0.083,0.028-0.224,0.028-0.421v-1.494c0-0.065-0.014-0.13-0.035-0.195
			c-0.021-0.066-0.054-0.117-0.094-0.153c-0.049-0.046-0.12-0.087-0.207-0.119c-0.086-0.035-0.156-0.054-0.212-0.056v-0.153h0.866
			l1.704,2.313v-1.442c0-0.176-0.011-0.312-0.033-0.409c-0.022-0.092-0.056-0.156-0.099-0.186c-0.04-0.028-0.106-0.054-0.196-0.08
			c-0.091-0.026-0.158-0.041-0.205-0.043v-0.153h1.232V15.828z"/>
	</g>
	<g>
		<g>
			<path fill="#90624D" d="M87.938,50.189c0,1.526-0.287,2.849-0.859,3.97c-0.573,1.122-1.321,2.041-2.239,2.757
				c-0.928,0.715-1.968,1.252-3.122,1.605c-1.156,0.354-2.347,0.529-3.58,0.529h-7.432v-0.897c0.243,0,0.561-0.021,0.953-0.068
				c0.393-0.045,0.652-0.1,0.778-0.157c0.254-0.109,0.437-0.272,0.55-0.487s0.171-0.476,0.171-0.777V43.716
				c0-0.286-0.05-0.543-0.145-0.773c-0.099-0.227-0.29-0.407-0.576-0.542c-0.262-0.126-0.544-0.22-0.848-0.279
				c-0.304-0.059-0.564-0.096-0.781-0.112v-0.9h7.837c1.077,0,2.141,0.169,3.185,0.501c1.046,0.332,1.956,0.782,2.732,1.346
				c1.052,0.75,1.879,1.732,2.478,2.946C87.638,47.117,87.938,48.545,87.938,50.189z M84.84,50.182c0-1.204-0.159-2.292-0.48-3.266
				c-0.319-0.972-0.787-1.819-1.402-2.544c-0.582-0.69-1.297-1.233-2.144-1.629c-0.846-0.395-1.79-0.596-2.826-0.596
				c-0.346,0-0.735,0.007-1.17,0.02c-0.434,0.014-0.757,0.023-0.966,0.032v13.783c0,0.767,0.222,1.298,0.67,1.591
				c0.446,0.297,1.134,0.443,2.061,0.443c1.07,0,2.007-0.188,2.808-0.568c0.799-0.379,1.448-0.905,1.945-1.581
				c0.523-0.706,0.904-1.525,1.145-2.454C84.72,52.479,84.84,51.405,84.84,50.182z"/>
		</g>
		<g>
			<path fill="#90624D" d="M100.917,47.476c0,0.879-0.14,1.743-0.416,2.59c-0.28,0.847-0.677,1.565-1.19,2.155
				c-0.585,0.677-1.26,1.18-2.028,1.507c-0.769,0.332-1.631,0.495-2.585,0.495c-0.793,0-1.55-0.151-2.268-0.45
				c-0.719-0.3-1.355-0.735-1.912-1.309c-0.55-0.565-0.986-1.255-1.312-2.07c-0.324-0.814-0.488-1.727-0.488-2.739
				c0-1.949,0.567-3.544,1.705-4.782c1.136-1.242,2.625-1.862,4.465-1.862c1.748,0,3.19,0.587,4.326,1.765
				C100.351,43.953,100.917,45.52,100.917,47.476z M98.298,47.503c0-0.634-0.064-1.301-0.189-2.006
				c-0.127-0.703-0.317-1.3-0.571-1.792c-0.27-0.521-0.625-0.942-1.065-1.258c-0.439-0.315-0.977-0.475-1.609-0.475
				c-0.65,0-1.207,0.161-1.666,0.481c-0.462,0.321-0.836,0.759-1.123,1.317c-0.271,0.513-0.46,1.101-0.57,1.757
				c-0.111,0.658-0.165,1.295-0.165,1.913c0,0.808,0.066,1.558,0.195,2.244c0.133,0.689,0.342,1.303,0.63,1.843
				c0.286,0.542,0.647,0.962,1.084,1.27c0.435,0.312,0.973,0.464,1.615,0.464c1.056,0,1.894-0.51,2.512-1.53
				C97.99,50.709,98.298,49.301,98.298,47.503z"/>
		</g>
		<g>
			<path fill="#90624D" d="M112.664,50.822c0.38,0.42,0.662,0.881,0.842,1.385c0.184,0.499,0.274,1.084,0.274,1.749
				c0,1.586-0.589,2.892-1.758,3.921c-1.175,1.028-2.626,1.541-4.362,1.541c-0.802,0-1.601-0.124-2.403-0.374
				c-0.801-0.248-1.491-0.548-2.072-0.902l-0.544,0.923h-1.012l-0.176-6.146h1.023c0.21,0.76,0.455,1.444,0.739,2.054
				c0.28,0.613,0.655,1.185,1.119,1.715c0.438,0.499,0.949,0.894,1.537,1.189c0.586,0.294,1.266,0.442,2.038,0.442
				c0.583,0,1.091-0.077,1.525-0.229c0.436-0.152,0.785-0.366,1.057-0.646c0.27-0.278,0.47-0.604,0.6-0.98
				c0.131-0.375,0.197-0.809,0.197-1.298c0-0.717-0.203-1.386-0.608-2.006c-0.405-0.621-1.008-1.091-1.808-1.413
				c-0.547-0.217-1.175-0.458-1.886-0.724c-0.708-0.263-1.317-0.513-1.831-0.748c-1.012-0.457-1.799-1.052-2.36-1.789
				c-0.558-0.739-0.838-1.701-0.838-2.888c0-0.683,0.138-1.32,0.418-1.908c0.276-0.592,0.673-1.117,1.187-1.582
				c0.488-0.439,1.067-0.782,1.731-1.03c0.668-0.249,1.362-0.374,2.086-0.374c0.826,0,1.568,0.128,2.221,0.379
				c0.653,0.254,1.247,0.551,1.788,0.887l0.521-0.862h1.009l0.103,5.958h-1.024c-0.185-0.685-0.396-1.337-0.628-1.961
				c-0.229-0.623-0.532-1.189-0.901-1.694c-0.364-0.487-0.806-0.878-1.329-1.169c-0.521-0.292-1.161-0.436-1.921-0.436
				c-0.801,0-1.483,0.257-2.049,0.77c-0.565,0.516-0.847,1.143-0.847,1.883c0,0.778,0.18,1.419,0.543,1.93
				c0.364,0.51,0.891,0.93,1.581,1.258c0.615,0.296,1.22,0.55,1.816,0.766c0.591,0.216,1.167,0.443,1.726,0.688
				c0.505,0.22,0.992,0.468,1.458,0.746C111.912,50.126,112.32,50.451,112.664,50.822z"/>
			<path fill="#90624D" d="M128.945,53.768l-0.341,5.283h-14.892v-0.897c0.25-0.017,0.59-0.052,1.01-0.104
				c0.423-0.058,0.696-0.113,0.823-0.172c0.268-0.126,0.456-0.291,0.562-0.495c0.105-0.2,0.159-0.458,0.159-0.77V43.716
				c0-0.279-0.049-0.525-0.141-0.739c-0.091-0.216-0.287-0.392-0.58-0.526c-0.229-0.11-0.534-0.206-0.918-0.29
				c-0.383-0.085-0.687-0.136-0.915-0.152v-0.9h13.881v4.326h-0.949c-0.17-0.639-0.532-1.322-1.092-2.042
				c-0.562-0.722-1.092-1.116-1.601-1.183c-0.26-0.032-0.572-0.059-0.936-0.076c-0.363-0.015-0.774-0.025-1.237-0.025h-2.82v7.131
				h2.021c0.649,0,1.124-0.061,1.425-0.183c0.298-0.121,0.563-0.326,0.789-0.614c0.187-0.244,0.344-0.569,0.474-0.979
				c0.131-0.409,0.218-0.795,0.259-1.158h0.949v7.03h-0.949c-0.032-0.405-0.123-0.831-0.271-1.284
				c-0.146-0.448-0.302-0.778-0.462-0.979c-0.263-0.329-0.558-0.545-0.89-0.645c-0.334-0.1-0.772-0.152-1.324-0.152h-2.021v5.378
				c0,0.537,0.037,0.963,0.112,1.275c0.076,0.312,0.227,0.547,0.445,0.704c0.219,0.162,0.517,0.264,0.895,0.311
				c0.382,0.046,0.921,0.07,1.622,0.07c0.276,0,0.645,0,1.099,0s0.837-0.016,1.149-0.05c0.318-0.035,0.65-0.096,0.994-0.183
				c0.34-0.091,0.582-0.211,0.725-0.361c0.387-0.405,0.797-1.019,1.22-1.84c0.427-0.823,0.699-1.427,0.814-1.814H128.945z"/>
		</g>
		<rect x="91.084" y="55.466" fill="#90624D" width="7.867" height="1.288"/>
	</g>
</g>
</svg>
