<?xml version="1.0" encoding="utf-8"?>
<!-- Generator: Adobe Illustrator 19.1.0, SVG Export Plug-In . SVG Version: 6.00 Build 0)  -->
<svg version="1.1" id="Layer_1" xmlns="http://www.w3.org/2000/svg" xmlns:xlink="http://www.w3.org/1999/xlink" x="0px" y="0px"
	 viewBox="-204 371.3 202.7 50.7" style="enable-background:new -204 371.3 202.7 50.7;" xml:space="preserve">
<style type="text/css">
	.st0{fill:#F79351;}
</style>
<g>
	<path class="st0" d="M-176.2,385.2h-8.8v26.3h-3.6v-26.3h-8.8v-3.1h21.3V385.2z"/>
	<path class="st0" d="M-166,393.9c-0.6-0.5-1.5-0.7-2.6-0.7c-1.5,0-2.7,0.7-3.8,2c-1,1.4-1.5,3.2-1.5,5.5v10.7h-3.5v-21h3.5v4.3h0.1
		c0.5-1.5,1.3-2.6,2.3-3.5c1-0.8,2.2-1.2,3.4-1.2c0.9,0,1.6,0.1,2.1,0.3V393.9z"/>
	<path class="st0" d="M-146.2,411.5h-3.5v-3.3h-0.1c-1.5,2.5-3.7,3.8-6.8,3.8c-5.2,0-7.8-3-7.8-8.9v-12.6h3.5v12
		c0,4.4,1.8,6.7,5.3,6.7c1.7,0,3.1-0.6,4.2-1.8c1.1-1.2,1.7-2.8,1.7-4.8v-12.1h3.5V411.5z"/>
	<path class="st0" d="M-141.9,410.3v-4.1c0.5,0.4,1.1,0.8,1.7,1.1c0.7,0.3,1.4,0.6,2.1,0.8c0.7,0.2,1.5,0.4,2.3,0.5
		c0.8,0.1,1.5,0.2,2.1,0.2c2.2,0,3.9-0.4,4.9-1.2s1.6-1.9,1.6-3.4c0-0.8-0.2-1.5-0.5-2.1c-0.4-0.6-0.9-1.1-1.5-1.6
		c-0.6-0.5-1.4-1-2.3-1.4c-0.9-0.4-1.8-0.9-2.8-1.4c-1.1-0.5-2.1-1-3-1.6c-0.9-0.5-1.7-1.1-2.4-1.8c-0.7-0.6-1.2-1.4-1.6-2.2
		c-0.4-0.8-0.6-1.8-0.6-2.9c0-1.3,0.3-2.5,0.9-3.5c0.6-1,1.4-1.8,2.4-2.5c1-0.6,2.1-1.1,3.4-1.4c1.3-0.3,2.6-0.5,3.9-0.5
		c3,0,5.2,0.3,6.6,1v3.9c-1.8-1.2-4.1-1.8-7-1.8c-0.8,0-1.6,0.1-2.4,0.2c-0.8,0.2-1.5,0.4-2.1,0.8c-0.6,0.4-1.1,0.8-1.5,1.4
		c-0.4,0.6-0.6,1.2-0.6,2.1c0,0.8,0.1,1.4,0.4,2s0.7,1,1.3,1.5c0.6,0.5,1.3,0.9,2.1,1.3c0.8,0.4,1.8,0.9,2.8,1.4
		c1.1,0.5,2.1,1.1,3.1,1.6c1,0.6,1.8,1.2,2.6,1.9s1.3,1.5,1.8,2.3c0.4,0.8,0.7,1.8,0.7,2.9c0,1.5-0.3,2.7-0.9,3.7s-1.4,1.8-2.4,2.5
		c-1,0.6-2.2,1.1-3.5,1.4c-1.3,0.3-2.7,0.4-4.1,0.4c-0.5,0-1.1,0-1.8-0.1s-1.4-0.2-2.2-0.3c-0.7-0.1-1.4-0.3-2.1-0.5
		C-140.9,410.8-141.5,410.6-141.9,410.3z"/>
	<path class="st0" d="M-110.7,411.3c-0.8,0.4-1.9,0.7-3.3,0.7c-3.8,0-5.7-2.1-5.7-6.2v-12.4h-3.8v-2.9h3.8v-5.1l3.5-1.1v6.2h5.5v2.9
		h-5.5v11.8c0,1.4,0.2,2.4,0.7,3s1.3,0.9,2.5,0.9c0.9,0,1.6-0.2,2.3-0.7V411.3z"/>
	<path class="st0" d="M-98.9,412c-3.2,0-5.8-1-7.7-2.9c-1.9-2-2.9-4.6-2.9-7.8c0-3.5,1-6.3,3-8.3c2-2,4.7-3,8.1-3
		c3.3,0,5.8,1,7.6,2.9c1.8,1.9,2.7,4.6,2.7,8c0,3.4-1,6-3,8.1C-93,411-95.6,412-98.9,412z M-98.7,392.8c-2.3,0-4,0.7-5.3,2.2
		c-1.3,1.5-2,3.5-2,6.1c0,2.5,0.7,4.5,2,5.9c1.3,1.4,3.1,2.2,5.3,2.2c2.3,0,4-0.7,5.2-2.1s1.8-3.4,1.8-6c0-2.6-0.6-4.7-1.8-6.1
		S-96.4,392.8-98.7,392.8z"/>
	<path class="st0" d="M-72.8,393.9c-0.6-0.5-1.5-0.7-2.6-0.7c-1.5,0-2.7,0.7-3.8,2c-1,1.4-1.5,3.2-1.5,5.5v10.7h-3.5v-21h3.5v4.3
		h0.1c0.5-1.5,1.3-2.6,2.3-3.5c1-0.8,2.2-1.2,3.4-1.2c0.9,0,1.6,0.1,2.1,0.3V393.9z"/>
	<path class="st0" d="M-53.7,401.9h-15.5c0.1,2.3,0.7,4.1,2,5.4s3,1.9,5.2,1.9c2.5,0,4.7-0.8,6.8-2.3v3.2c-1.9,1.3-4.5,2-7.6,2
		c-3.1,0-5.5-1-7.3-2.9s-2.6-4.6-2.6-8.1c0-3.3,1-5.9,2.9-8c1.9-2.1,4.3-3.1,7.2-3.1c2.9,0,5.1,0.9,6.6,2.7s2.4,4.2,2.4,7.4V401.9z
		 M-57.3,399c0-1.9-0.5-3.5-1.5-4.5s-2.3-1.6-4-1.6c-1.7,0-3.1,0.6-4.2,1.7c-1.2,1.1-1.9,2.6-2.1,4.5H-57.3z"/>
	<path class="st0" d="M-32.6,401.9H-48c0.1,2.3,0.7,4.1,2,5.4s3,1.9,5.2,1.9c2.5,0,4.7-0.8,6.8-2.3v3.2c-1.9,1.3-4.5,2-7.6,2
		c-3.1,0-5.5-1-7.3-2.9s-2.6-4.6-2.6-8.1c0-3.3,1-5.9,2.9-8c1.9-2.1,4.3-3.1,7.2-3.1c2.9,0,5.1,0.9,6.6,2.7s2.4,4.2,2.4,7.4V401.9z
		 M-36.2,399c0-1.9-0.5-3.5-1.5-4.5s-2.3-1.6-4-1.6c-1.7,0-3.1,0.6-4.2,1.7c-1.2,1.1-1.9,2.6-2.1,4.5H-36.2z"/>
</g>
</svg>
