<?xml version="1.0" encoding="utf-8"?>
<!-- Generator: Adobe Illustrator 16.2.1, SVG Export Plug-In . SVG Version: 6.00 Build 0)  -->
<!DOCTYPE svg PUBLIC "-//W3C//DTD SVG 1.1//EN" "http://www.w3.org/Graphics/SVG/1.1/DTD/svg11.dtd">
<svg version="1.1" id="Layer_1" xmlns="http://www.w3.org/2000/svg" xmlns:xlink="http://www.w3.org/1999/xlink" x="0px" y="0px"
	 width="253px" height="150px" viewBox="0 0 253 150" enable-background="new 0 0 253 150" xml:space="preserve">
<g>
	<g>
		<g>
			<g>
				<path fill="#90624D" d="M106.718,28.929c0.223,1.358-0.57,2.281-1.066,2.713c-1.364,1.194-3.89,1.662-5.747,0.37
					c-1.168-0.813-2.499-2.62-2.188-6.598c0.725-9.396,14.175-17.638,28.781-17.638c14.611,0,28.062,8.242,28.786,17.638
					c0.306,3.979-1.021,5.785-2.188,6.598c-1.858,1.292-4.379,0.824-5.749-0.37c-0.493-0.432-1.29-1.355-1.065-2.713l0,0
					c0.041-0.236-0.087-0.464-0.283-0.514c-0.196-0.047-0.387,0.104-0.421,0.345l0,0c-0.225,1.339,0.269,2.652,1.344,3.593
					c1.534,1.339,4.344,1.938,6.53,0.417c1.916-1.329,2.817-3.969,2.549-7.437c-0.383-4.981-4.099-10.898-9.582-14.141
					c-5.598-3.306-11.281-4.985-18.2-4.985c-6.918,0-15.854,2.413-21.444,5.735c-5.945,3.533-9.394,8.409-9.777,13.391
					c-0.268,3.468,0.636,6.106,2.551,7.437c2.19,1.522,4.997,0.921,6.526-0.417c1.08-0.94,1.573-2.253,1.351-3.593l0,0
					c-0.04-0.24-0.232-0.392-0.426-0.345C106.808,28.464,106.677,28.692,106.718,28.929L106.718,28.929z"/>
			</g>
		</g>
		<g>
			<g>
				<path fill="#90624D" d="M207.021,102.899c-0.17-2.49-1.789-4.847-4.171-6.198c-2.734-1.557-6.062-1.412-9.362,0.407
					c-0.16,0.092-0.219,0.294-0.134,0.455c0.091,0.16,0.299,0.221,0.459,0.13c3.088-1.701,6.182-1.85,8.703-0.409
					c2.157,1.22,3.648,3.54,3.726,5.777c0.112,3.298-1.01,8.525-11.104,10.236c-3.025,0.516-5.93,0.359-8.651-0.187
					c0.037-0.473,0.028-0.951-0.012-1.431c-0.304-3.01-2.619-5.897-5.632-7.014c-3.602-1.337-7.712-0.676-11.158,0.698
					c-0.774-0.488-1.596-1.021-2.449-1.58c-5.433-3.535-12.914-8.198-19.189-8.908c-4.594-0.519-8.178,1.446-9.914,2.842
					c-2.04,1.646-3.407,4.01-3.643,6.335c-0.02,0.185,0.114,0.345,0.295,0.366c0.188,0.02,0.354-0.114,0.371-0.301
					c0.221-2.149,1.331-3.997,3.231-5.527c1.633-1.318,4.722-2.581,9.063-1.932c5.94,0.893,12.742,5.116,18.124,8.616
					c0.601,0.391,1.236,0.771,1.86,1.127c-0.682,0.358-1.322,0.733-1.899,1.119c-0.935,0.623-2.112,1.449-3.479,2.402
					c-0.31,0.216-0.629,0.438-0.95,0.662c-0.384-0.279-0.776-0.562-1.18-0.853c-11.397-8.276-21.321-5.997-25.074-1.093
					c-2.912,3.808-2.032,7.478-1.247,9.324c1.214,2.858,3.829,5.212,6.08,5.468c0.187,0.023,0.348-0.111,0.369-0.29
					c0.022-0.187-0.105-0.351-0.292-0.372c-2.031-0.236-4.415-2.414-5.542-5.064c-0.726-1.717-1.544-5.118,1.163-8.661
					c3.561-4.654,12.128-5.334,23.211,2.619c0.159,0.112,0.31,0.224,0.47,0.334c-1.53,1.054-3.105,2.115-4.6,3.078
					c-1.757-1.772-3.974-3.033-6.234-3.302c-2.769-0.323-4.231,0.519-4.966,1.277c-0.913,0.944-1.185,2.247-1.048,3.121
					c0.151,0.989,0.886,1.909,1.956,2.467c0.985,0.512,3.109,1.131,6.246-0.438c1.147-0.571,2.472-1.35,3.875-2.229
					c0.601,0.799,1.102,1.716,1.477,2.746c1.481,4.075,0.666,8.732-2.027,11.58c-4.733,5.015-12.017,6.154-17.712,2.766
					c-0.655-0.387-1.317-0.891-1.964-1.469c0.017-0.095,0.035-0.186,0.044-0.279c0.376-2.847-0.624-8.47-2.702-10.111
					c-0.63-0.502-1.344-0.615-2.059-0.344c-0.709,0.271-1.124,0.865-1.197,1.717c-0.207,2.413,2.244,6.623,5.148,9.47
					c-0.664,3.194-2.893,7.204-6.684,9.641c-0.056,0.037-0.11,0.073-0.11,0.073s-0.072-0.036-0.126-0.073
					c-3.791-2.437-6.02-6.446-6.688-9.641c2.911-2.847,5.362-7.057,5.156-9.47c-0.074-0.852-0.49-1.446-1.202-1.717
					c-0.712-0.271-1.425-0.158-2.055,0.344c-2.082,1.642-3.074,7.265-2.707,10.111c0.014,0.094,0.033,0.185,0.046,0.279
					c-0.644,0.578-1.308,1.082-1.965,1.469c-5.689,3.389-12.975,2.249-17.706-2.766c-2.694-2.848-3.51-7.505-2.028-11.58
					c0.375-1.03,0.874-1.947,1.476-2.746c1.403,0.879,2.731,1.657,3.873,2.229c3.136,1.569,5.262,0.95,6.248,0.438
					c1.071-0.558,1.805-1.478,1.959-2.467c0.132-0.874-0.141-2.177-1.05-3.121c-0.735-0.759-2.198-1.601-4.967-1.277
					c-2.261,0.269-4.48,1.529-6.233,3.302c-1.495-0.963-3.07-2.024-4.6-3.078c0.159-0.11,0.312-0.222,0.474-0.334
					c11.079-7.953,19.646-7.273,23.204-2.619c2.709,3.543,1.894,6.944,1.166,8.661c-1.125,2.65-3.507,4.828-5.542,5.064
					c-0.182,0.021-0.314,0.186-0.296,0.372c0.023,0.179,0.188,0.313,0.372,0.29c2.253-0.256,4.867-2.609,6.081-5.468
					c0.786-1.847,1.667-5.517-1.248-9.324c-3.749-4.904-13.673-7.184-25.074,1.093c-0.4,0.291-0.792,0.573-1.178,0.853
					c-0.32-0.225-0.637-0.446-0.948-0.662c-1.363-0.953-2.542-1.779-3.482-2.402c-0.574-0.386-1.214-0.761-1.897-1.119
					c0.624-0.355,1.26-0.736,1.86-1.127c5.382-3.5,12.182-7.724,18.126-8.616c4.339-0.649,7.427,0.613,9.063,1.932
					c1.902,1.53,3.008,3.378,3.229,5.527c0.023,0.187,0.183,0.32,0.368,0.301c0.187-0.021,0.317-0.182,0.299-0.366
					c-0.241-2.325-1.602-4.689-3.641-6.335c-1.737-1.396-5.326-3.36-9.916-2.842c-6.276,0.71-13.756,5.373-19.189,8.908
					c-0.855,0.559-1.675,1.092-2.45,1.58c-3.446-1.374-7.553-2.035-11.158-0.698c-3.012,1.116-5.327,4.004-5.627,7.014
					c-0.048,0.479-0.053,0.958-0.019,1.431c-2.72,0.546-5.621,0.702-8.646,0.187c-10.097-1.711-11.216-6.938-11.104-10.236
					c0.073-2.237,1.571-4.558,3.719-5.777c2.525-1.44,5.617-1.292,8.709,0.409c0.161,0.091,0.365,0.03,0.455-0.13
					c0.089-0.161,0.03-0.363-0.128-0.455c-3.303-1.819-6.63-1.964-9.364-0.407c-2.382,1.352-4,3.708-4.17,6.198
					c-0.445,6.539,3.86,10.846,11.588,12.33c3.225,0.618,6.38,0.451,9.36-0.175c0.513,1.41,1.481,2.672,2.967,3.593
					c6.259,3.875,11.581,2.18,23.461-6.232c1.562,1.073,3.175,2.169,4.714,3.152c-0.981,1.096-1.791,2.35-2.325,3.676
					c-1.93,4.752-0.486,9.744,2.377,12.775c4.951,5.239,13.498,5.803,19.461,1.78c0.517-0.348,1.032-0.763,1.543-1.221
					c0.796,3.271,3.094,8.471,6.892,10.91c0.154,0.1,0.508,0.321,0.519,0.305c0.003,0.017,0.29-0.205,0.442-0.305
					c3.8-2.439,6.099-7.639,6.895-10.91c0.507,0.458,1.026,0.873,1.545,1.221c5.961,4.022,14.51,3.459,19.456-1.78
					c2.865-3.031,4.309-8.023,2.378-12.775c-0.536-1.326-1.342-2.58-2.324-3.676c1.541-0.983,3.154-2.079,4.714-3.152
					c11.885,8.412,17.199,10.107,23.463,6.232c1.483-0.921,2.455-2.183,2.968-3.593c2.977,0.626,6.136,0.793,9.36,0.175
					C203.156,113.745,207.465,109.438,207.021,102.899z M150.122,117.604c-2.875,1.438-4.771,0.898-5.64,0.444
					c-0.888-0.458-1.488-1.197-1.605-1.98c-0.081-0.528,0.004-1.657,0.864-2.55c0.907-0.936,2.431-1.307,4.411-1.078
					c2.291,0.27,4.262,1.331,5.718,3.005C152.508,116.302,151.229,117.053,150.122,117.604z M104.846,112.439
					c1.978-0.229,3.504,0.143,4.408,1.078c0.859,0.893,0.95,2.021,0.868,2.55c-0.121,0.783-0.719,1.522-1.601,1.98
					c-0.877,0.454-2.774,0.994-5.646-0.444c-1.103-0.551-2.384-1.302-3.748-2.159C100.585,113.771,102.555,112.709,104.846,112.439z
					 M67.193,111.746c0.277-2.763,2.409-5.419,5.197-6.454c3.275-1.217,7.004-0.68,10.215,0.516
					c-0.292,0.182-0.576,0.355-0.848,0.52l-0.242,0.146c-3.543,2.107-8.504,5.168-14.322,6.494
					C67.152,112.565,67.152,112.16,67.193,111.746z M70.516,117.769c-1.32-0.75-2.254-1.745-2.796-2.884
					c5.956-1.417,11.147-4.552,14.654-6.636l0.744-0.447c0.512-0.302,1.119-0.643,1.76-1.006c0.799,0.404,1.55,0.844,2.215,1.284
					c0.928,0.621,2.105,1.44,3.469,2.392c0.247,0.173,0.498,0.351,0.752,0.527C81.329,118.142,75.973,120.848,70.516,117.769z
					 M122.005,121.731c0.446-0.355,0.907-0.437,1.398-0.248c0.472,0.181,0.723,0.555,0.777,1.153
					c0.179,2.078-2.008,5.789-4.651,8.393C119.244,128.271,120.199,123.157,122.005,121.731z M133.472,131.029
					c-2.65-2.604-4.831-6.314-4.653-8.393c0.051-0.599,0.308-0.973,0.771-1.153c0.5-0.188,0.953-0.107,1.405,0.248
					C132.799,123.157,133.752,128.271,133.472,131.029z M180.61,105.292c2.779,1.035,4.923,3.691,5.196,6.454
					c0.041,0.414,0.035,0.819,0,1.221c-5.819-1.326-10.779-4.387-14.323-6.494l-0.243-0.146c-0.271-0.164-0.556-0.34-0.853-0.52
					C173.603,104.612,177.337,104.075,180.61,105.292z M182.48,117.769c-5.453,3.079-10.812,0.373-20.797-6.77
					c0.253-0.177,0.507-0.354,0.753-0.527c1.357-0.951,2.539-1.771,3.474-2.392c0.662-0.44,1.41-0.88,2.206-1.284
					c0.648,0.363,1.252,0.704,1.767,1.006l0.742,0.447c3.505,2.084,8.697,5.219,14.653,6.636
					C184.737,116.023,183.806,117.019,182.48,117.769z"/>
				<path fill="#90624D" d="M136.31,46.262c1.907,4.889,7.949,9.241,15.579,7.758c3.068-0.595,5.314-1.989,6.864-3.589
					c0.732,1.188,1.687,2.41,2.903,3.608c3.15,3.109,9.495,5.956,16.556,5.308c2.587-0.233,5.851-1.022,8.984-3.128
					c9.806,6.425,18.264,10.157,26.608,7.4c4.755-1.569,8.56-4.969,9.664-9.483c0.927-3.787,0.195-7.927-1.843-10.519
					c-2.691-3.43-7.604-4.677-11.505-3.51c-2.881,0.858-5.088,2.875-6.143,5.381c-0.069,0.167,0.01,0.356,0.176,0.424
					c0.164,0.07,0.354-0.007,0.427-0.172c0.967-2.303,3.09-3.92,5.825-4.436c3.535-0.669,7.338,0.57,9.928,3.227
					c2.144,2.207,2.934,5.79,2.06,9.358c-1.052,4.293-4.254,7.615-8.795,9.115c-7.865,2.598-15.653-1.616-24.917-7.896
					c1.292-1.069,2.534-2.386,3.678-4.017c0.188-0.272,0.352-0.542,0.517-0.811c3.64,2.111,6.533,3.411,8.977,4.194
					c4.274,1.378,8.382,0.312,11.231-2.13c0.138-0.119,0.148-0.323,0.033-0.459c-0.114-0.134-0.324-0.15-0.463-0.033
					c-4.124,3.539-9.034,2.931-18.894-3.166c2.737-5.756,1.092-11.39-1.649-15.003c-4.04-5.323-10.806-7.482-16.843-5.367
					c-0.168,0.061-0.258,0.244-0.199,0.415c0.06,0.169,0.246,0.259,0.412,0.201c6.667-2.335,13.717,1.625,15.991,5.826
					c1.854,3.424,2.5,8.203,0.511,12.804c-2.01-1.294-4.217-2.795-6.637-4.515c-14.506-10.282-32.619-21.013-43.972-12.651
					C135.159,34.974,134.438,41.46,136.31,46.262z M158.79,49.19c-1.262-2.382-1.562-4.537-0.967-5.769
					c0.329-0.687,0.92-0.999,1.715-0.902c0.762,0.093,1.252,0.856,1.3,1.997C160.884,45.833,160.289,47.61,158.79,49.19z
					 M141.759,30.921c10.009-7.154,27.797,3.351,42.13,13.507c2.688,1.908,5.081,3.49,7.232,4.81
					c-0.276,0.464-0.568,0.93-0.906,1.386c-0.97,1.33-2.026,2.45-3.125,3.395c-1.143-0.783-2.303-1.595-3.496-2.428
					c-2.112-1.475-4.298-3-6.581-4.536c-13.022-8.76-21.031-11.975-25.962-10.428c-2.193,0.689-3.763,2.318-4.799,4.977
					c-0.061,0.168,0.02,0.353,0.188,0.418c0.165,0.067,0.354-0.015,0.419-0.184c0.954-2.464,2.198-3.685,4.046-4.118
					c4.762-1.107,12.617,2.442,25.289,10.964c2.277,1.531,4.46,3.053,6.569,4.527c0.965,0.673,1.916,1.328,2.854,1.96
					c-2.463,1.73-5.06,2.658-7.424,2.996c-6.816,0.978-13.036-1.588-16.082-4.591c-1.217-1.2-2.181-2.446-2.906-3.653
					c1.627-1.908,2.327-4.018,2.283-5.432c-0.059-1.459-0.787-2.485-1.875-2.617c-1.077-0.131-1.924,0.319-2.372,1.262
					c-0.68,1.405-0.396,3.839,1.063,6.527c-1.38,1.255-3.385,2.335-6.177,2.878c-7.277,1.411-12.746-2.871-14.754-7.445
					C135.62,41.095,135.789,35.186,141.759,30.921z"/>
				<path fill="#90624D" d="M111.625,30.396c-11.354-8.362-29.465,2.37-43.972,12.651c-2.423,1.719-4.625,3.22-6.631,4.515
					c-1.995-4.601-1.352-9.38,0.505-12.804c2.273-4.201,9.322-8.162,15.988-5.826c0.17,0.058,0.355-0.032,0.417-0.201
					c0.059-0.171-0.029-0.354-0.202-0.415c-6.037-2.115-12.803,0.044-16.84,5.367c-2.741,3.613-4.386,9.247-1.651,15.003
					c-9.859,6.097-14.769,6.704-18.897,3.166c-0.138-0.118-0.342-0.102-0.458,0.033c-0.117,0.137-0.105,0.341,0.035,0.459
					c2.849,2.443,6.953,3.509,11.232,2.13c2.439-0.783,5.335-2.083,8.975-4.194c0.165,0.269,0.329,0.539,0.517,0.811
					c1.143,1.631,2.387,2.948,3.678,4.017c-9.268,6.28-17.054,10.494-24.919,7.896c-4.537-1.5-7.743-4.821-8.793-9.115
					c-0.875-3.568-0.084-7.151,2.059-9.358c2.589-2.657,6.393-3.896,9.928-3.227c2.733,0.516,4.859,2.133,5.826,4.436
					c0.07,0.165,0.261,0.242,0.424,0.172c0.165-0.068,0.243-0.257,0.173-0.424c-1.052-2.506-3.257-4.523-6.136-5.381
					c-3.9-1.167-8.817,0.08-11.51,3.51c-2.037,2.592-2.765,6.732-1.84,10.519c1.105,4.514,4.909,7.914,9.665,9.483
					c8.339,2.757,16.803-0.975,26.609-7.4c3.135,2.106,6.397,2.895,8.984,3.128c7.061,0.647,13.401-2.199,16.552-5.308
					c1.216-1.199,2.173-2.421,2.907-3.608c1.544,1.601,3.791,2.995,6.863,3.589c7.625,1.483,13.669-2.869,15.578-7.758
					C118.562,41.46,117.843,34.974,111.625,30.396z M92.166,44.516c0.041-1.14,0.538-1.904,1.294-1.997
					c0.793-0.096,1.387,0.215,1.716,0.902c0.593,1.232,0.293,3.387-0.964,5.769C92.709,47.61,92.116,45.833,92.166,44.516z
					 M115.627,45.096c-2.009,4.575-7.479,8.856-14.756,7.445c-2.793-0.543-4.799-1.624-6.178-2.878
					c1.462-2.688,1.745-5.122,1.068-6.527c-0.455-0.943-1.298-1.393-2.377-1.262c-1.083,0.132-1.818,1.158-1.871,2.617
					c-0.05,1.414,0.654,3.523,2.283,5.432c-0.726,1.208-1.694,2.454-2.909,3.653c-3.044,3.002-9.265,5.569-16.083,4.591
					c-2.36-0.337-4.958-1.265-7.423-2.996c0.939-0.632,1.89-1.287,2.854-1.96c2.114-1.475,4.297-2.996,6.575-4.527
					c12.669-8.522,20.525-12.072,25.285-10.964c1.848,0.434,3.09,1.654,4.046,4.118c0.065,0.168,0.253,0.25,0.419,0.184
					c0.167-0.065,0.251-0.25,0.188-0.418c-1.034-2.659-2.605-4.288-4.799-4.977c-4.931-1.547-12.938,1.668-25.96,10.428
					c-2.284,1.536-4.47,3.061-6.583,4.536c-1.191,0.833-2.354,1.645-3.498,2.428c-1.1-0.944-2.153-2.064-3.125-3.395
					c-0.336-0.456-0.627-0.922-0.903-1.386c2.151-1.319,4.543-2.902,7.231-4.81c14.332-10.156,32.12-20.661,42.13-13.507
					C117.209,35.186,117.381,41.095,115.627,45.096z"/>
				<g>
					<g>
						<path fill="#90624D" d="M86.688,92.488c-6.84,5.8-19.805,9.396-33.839,9.396c-21.316,0-38.838-7.992-38.838-17.998
							c0-9.998,17.522-18.278,38.838-18.278c4.966,0,9.804,0.439,14.375,1.305l0,0c0.206,0.037,0.405-0.098,0.444-0.305
							c0.04-0.204-0.096-0.403-0.304-0.441l0,0c-4.618-0.873-12.569-1.995-17.624-1.995c-21.733,0-36.307,9.154-36.307,19.573
							c0,10.42,16.929,20.191,39.508,20.023c14.206-0.101,27.266-4.794,34.239-10.7l0,0c0.158-0.13,0.179-0.374,0.041-0.531
							C87.087,92.378,86.846,92.356,86.688,92.488L86.688,92.488z"/>
					</g>
					<g>
						<path fill="#90624D" d="M166.314,92.488c6.837,5.8,19.806,9.396,33.833,9.396c21.319,0,38.84-7.992,38.84-17.998
							c0-9.998-17.521-18.278-38.84-18.278c-4.962,0-9.802,0.439-14.371,1.305l0,0c-0.21,0.037-0.404-0.098-0.441-0.305
							c-0.043-0.204,0.093-0.403,0.3-0.441l0,0c4.621-0.873,12.569-1.995,17.625-1.995c21.734,0,36.308,9.154,36.308,19.573
							c0,10.42-16.929,20.191-39.507,20.023c-14.206-0.101-27.266-4.794-34.241-10.7l0,0c-0.156-0.13-0.177-0.374-0.037-0.531
							C165.912,92.378,166.152,92.356,166.314,92.488L166.314,92.488z"/>
					</g>
				</g>
				<g>
					<path fill="#90624D" d="M145.826,34.31c2.132-2.106,3.57-4.452,3.623-6.936c0.161-7.977-8.399-14.17-22.86-13.919
						c-12.396,0.213-22.935,6.385-22.935,13.839c0,4.651,2.659,9.516,9.389,11.884c5.642,1.984,16.258,0.05,18.793-4.254l0,0
						c0.08-0.142,0.037-0.327-0.106-0.409c-0.145-0.086-0.324-0.038-0.407,0.105l0,0c-2.401,4.082-11.633,5.349-17.033,3.348
						c-5.914-2.186-9.588-6.278-9.588-10.674c0-7.123,9.055-13.264,21.642-12.885c10.966,0.333,22.108,5.321,22.139,12.885
						c0.008,2.319-1.062,4.601-3.079,6.59l0,0c-0.114,0.115-0.114,0.306,0,0.424C145.521,34.426,145.707,34.426,145.826,34.31
						L145.826,34.31z"/>
				</g>
			</g>
		</g>
	</g>
	<g>
		<path fill="#90624D" d="M117.641,26.461h-2.08v-0.235c0.076-0.003,0.172-0.01,0.292-0.024c0.116-0.013,0.197-0.032,0.24-0.055
			c0.071-0.041,0.122-0.091,0.155-0.146c0.03-0.051,0.049-0.119,0.049-0.204v-3.419h-0.053l-1.603,4.007h-0.166l-1.53-4.09h-0.042
			v2.808c0,0.271,0.016,0.478,0.053,0.62c0.034,0.14,0.085,0.242,0.156,0.304c0.05,0.046,0.15,0.091,0.302,0.135
			c0.155,0.039,0.252,0.062,0.299,0.064v0.235h-1.899v-0.235c0.099-0.008,0.205-0.026,0.313-0.051
			c0.108-0.021,0.194-0.059,0.253-0.107c0.077-0.062,0.13-0.156,0.159-0.285c0.028-0.13,0.044-0.342,0.044-0.642v-2.408
			c0-0.139-0.018-0.253-0.05-0.341c-0.035-0.088-0.081-0.158-0.142-0.216c-0.068-0.06-0.155-0.103-0.254-0.133
			c-0.099-0.028-0.198-0.045-0.294-0.048v-0.237h1.604l1.346,3.531l1.153-2.952c0.04-0.109,0.077-0.221,0.105-0.34
			c0.031-0.119,0.045-0.196,0.047-0.239h1.536v0.237c-0.064,0.002-0.143,0.01-0.238,0.031c-0.096,0.016-0.165,0.033-0.209,0.048
			c-0.076,0.028-0.127,0.071-0.155,0.132c-0.024,0.062-0.04,0.13-0.04,0.203v3.389c0,0.08,0.016,0.143,0.04,0.198
			c0.028,0.052,0.08,0.097,0.155,0.136c0.036,0.024,0.107,0.043,0.21,0.064c0.1,0.017,0.182,0.027,0.243,0.03V26.461z"/>
		<path fill="#90624D" d="M123.542,21.994c-0.062,0.002-0.157,0.021-0.285,0.053c-0.127,0.035-0.22,0.068-0.276,0.103
			c-0.079,0.055-0.131,0.16-0.161,0.317c-0.025,0.157-0.042,0.356-0.042,0.597v3.444h-0.286l-2.851-3.848v2.425
			c0,0.272,0.018,0.48,0.053,0.625c0.032,0.147,0.086,0.252,0.156,0.312c0.05,0.049,0.155,0.095,0.315,0.139
			c0.16,0.039,0.266,0.062,0.316,0.064v0.235h-1.931v-0.235c0.059-0.003,0.162-0.026,0.303-0.064
			c0.142-0.038,0.228-0.072,0.263-0.105c0.077-0.061,0.132-0.155,0.161-0.281c0.029-0.128,0.042-0.347,0.042-0.653v-2.317
			c0-0.102-0.017-0.202-0.051-0.303c-0.036-0.103-0.085-0.181-0.144-0.238c-0.08-0.072-0.187-0.136-0.321-0.184
			c-0.137-0.055-0.248-0.083-0.331-0.087v-0.237h1.343l2.643,3.588v-2.237c0-0.273-0.017-0.485-0.052-0.634
			c-0.035-0.143-0.089-0.243-0.152-0.289c-0.064-0.044-0.162-0.084-0.304-0.125c-0.14-0.041-0.247-0.063-0.32-0.067v-0.237h1.912
			V21.994z"/>
		<path fill="#90624D" d="M129.16,26.461h-1.951v-0.235c0.055-0.003,0.131-0.01,0.23-0.021c0.102-0.008,0.17-0.021,0.207-0.04
			c0.066-0.027,0.115-0.066,0.146-0.12c0.03-0.054,0.048-0.126,0.048-0.211V24.16h-2.21v1.637c0,0.08,0.012,0.143,0.037,0.198
			c0.025,0.052,0.076,0.097,0.151,0.136c0.039,0.022,0.106,0.042,0.201,0.062c0.096,0.019,0.172,0.029,0.226,0.032v0.235h-1.953
			v-0.235c0.053-0.003,0.13-0.01,0.232-0.021c0.101-0.008,0.168-0.021,0.208-0.04c0.064-0.027,0.116-0.066,0.145-0.12
			c0.032-0.054,0.045-0.126,0.045-0.211v-3.396c0-0.067-0.014-0.133-0.042-0.191c-0.027-0.058-0.078-0.104-0.148-0.139
			c-0.06-0.027-0.133-0.053-0.219-0.075c-0.084-0.021-0.156-0.037-0.221-0.041v-0.237h1.953v0.237
			c-0.061,0.002-0.138,0.01-0.226,0.031c-0.088,0.016-0.158,0.033-0.201,0.048c-0.075,0.028-0.125,0.071-0.151,0.132
			c-0.025,0.062-0.037,0.13-0.037,0.203v1.459h2.21v-1.428c0-0.067-0.016-0.133-0.046-0.191c-0.026-0.058-0.077-0.104-0.147-0.139
			c-0.059-0.027-0.131-0.053-0.217-0.075c-0.086-0.021-0.158-0.037-0.221-0.041v-0.237h1.951v0.237
			c-0.057,0.002-0.139,0.01-0.228,0.031c-0.087,0.016-0.152,0.033-0.2,0.048c-0.073,0.028-0.121,0.071-0.148,0.132
			c-0.027,0.062-0.041,0.13-0.041,0.203v3.389c0,0.08,0.014,0.143,0.041,0.198c0.027,0.052,0.075,0.097,0.148,0.136
			c0.04,0.022,0.104,0.042,0.2,0.062c0.094,0.019,0.175,0.029,0.228,0.032V26.461z"/>
		<path fill="#90624D" d="M134.152,23.033h-0.23c-0.018-0.077-0.053-0.171-0.102-0.281c-0.055-0.111-0.113-0.215-0.178-0.312
			c-0.07-0.1-0.139-0.188-0.219-0.265c-0.078-0.076-0.153-0.12-0.226-0.132c-0.066-0.008-0.155-0.013-0.259-0.017
			c-0.107-0.005-0.201-0.007-0.286-0.007h-0.199v3.762c0,0.07,0.019,0.139,0.051,0.2c0.03,0.059,0.083,0.107,0.161,0.138
			c0.039,0.017,0.121,0.037,0.251,0.065c0.126,0.024,0.226,0.04,0.297,0.042v0.235h-2.222v-0.235
			c0.06-0.003,0.155-0.013,0.283-0.026c0.127-0.014,0.213-0.03,0.265-0.049c0.072-0.029,0.126-0.069,0.159-0.125
			c0.034-0.054,0.051-0.127,0.051-0.216v-3.792h-0.189c-0.072,0-0.155,0.002-0.258,0.004c-0.101,0.004-0.203,0.013-0.293,0.021
			c-0.07,0.013-0.146,0.053-0.225,0.132c-0.082,0.081-0.148,0.168-0.217,0.265c-0.068,0.102-0.128,0.207-0.176,0.32
			c-0.051,0.11-0.089,0.202-0.109,0.274h-0.229v-1.276h4.098V23.033z"/>
		<path fill="#90624D" d="M139.821,21.994c-0.067,0.002-0.157,0.021-0.287,0.053c-0.128,0.035-0.216,0.068-0.274,0.103
			c-0.076,0.055-0.134,0.16-0.157,0.317c-0.032,0.157-0.043,0.356-0.043,0.597v3.444h-0.289l-2.853-3.848v2.425
			c0,0.272,0.02,0.48,0.053,0.625c0.033,0.147,0.085,0.252,0.158,0.312c0.052,0.049,0.157,0.095,0.316,0.139
			c0.158,0.039,0.262,0.062,0.311,0.064v0.235h-1.926v-0.235c0.059-0.003,0.161-0.026,0.301-0.064
			c0.145-0.038,0.23-0.072,0.265-0.105c0.078-0.061,0.13-0.155,0.159-0.281c0.028-0.128,0.045-0.347,0.045-0.653v-2.317
			c0-0.102-0.021-0.202-0.055-0.303c-0.032-0.103-0.084-0.181-0.146-0.238c-0.076-0.072-0.187-0.136-0.321-0.184
			c-0.133-0.055-0.242-0.083-0.328-0.087v-0.237h1.344l2.643,3.588v-2.237c0-0.273-0.017-0.485-0.051-0.634
			c-0.035-0.143-0.087-0.243-0.153-0.289c-0.062-0.044-0.165-0.084-0.305-0.125c-0.14-0.041-0.245-0.063-0.317-0.067v-0.237h1.911
			V21.994z"/>
	</g>
	<g>
		<g>
			<path fill="#90624D" d="M107.792,75.293c0,2.367-0.445,4.42-1.333,6.158c-0.889,1.741-2.049,3.166-3.473,4.277
				c-1.439,1.108-3.052,1.94-4.843,2.49c-1.794,0.549-3.641,0.82-5.554,0.82H81.061v-1.392c0.376,0,0.87-0.032,1.478-0.106
				c0.609-0.069,1.012-0.154,1.208-0.244c0.394-0.169,0.677-0.422,0.853-0.756c0.175-0.333,0.265-0.737,0.265-1.205V65.253
				c0-0.444-0.077-0.843-0.224-1.199c-0.154-0.351-0.451-0.632-0.894-0.841c-0.406-0.196-0.844-0.341-1.315-0.433
				c-0.472-0.09-0.875-0.149-1.212-0.174v-1.396h12.157c1.671,0,3.32,0.262,4.939,0.778c1.623,0.514,3.035,1.213,4.239,2.088
				c1.631,1.165,2.914,2.688,3.843,4.569C107.324,70.528,107.792,72.743,107.792,75.293z M102.985,75.283
				c0-1.867-0.247-3.556-0.746-5.066c-0.495-1.507-1.221-2.822-2.175-3.947c-0.902-1.071-2.012-1.913-3.325-2.528
				c-1.312-0.612-2.776-0.924-4.384-0.924c-0.536,0-1.141,0.011-1.814,0.031c-0.673,0.021-1.174,0.036-1.499,0.049v21.38
				c0,1.188,0.343,2.013,1.039,2.467c0.692,0.461,1.759,0.688,3.197,0.688c1.66,0,3.113-0.292,4.355-0.882
				c1.239-0.588,2.246-1.404,3.018-2.452c0.812-1.095,1.402-2.366,1.775-3.807C102.799,78.845,102.985,77.18,102.985,75.283z"/>
		</g>
		<g>
			<path fill="#90624D" d="M127.922,71.085c0,1.364-0.217,2.703-0.645,4.018c-0.436,1.314-1.05,2.428-1.846,3.343
				c-0.907,1.05-1.955,1.83-3.147,2.337c-1.191,0.516-2.53,0.769-4.009,0.769c-1.23,0-2.404-0.235-3.518-0.698
				c-1.115-0.465-2.104-1.141-2.966-2.029c-0.853-0.878-1.53-1.948-2.035-3.212C109.254,74.35,109,72.933,109,71.364
				c0-3.023,0.879-5.498,2.644-7.418c1.761-1.926,4.072-2.888,6.926-2.888c2.71,0,4.948,0.911,6.71,2.738
				C127.044,65.621,127.922,68.051,127.922,71.085z M123.86,71.127c0-0.984-0.1-2.018-0.295-3.112
				c-0.197-1.09-0.491-2.017-0.886-2.779c-0.418-0.809-0.969-1.461-1.652-1.951c-0.682-0.488-1.515-0.736-2.497-0.736
				c-1.009,0-1.872,0.25-2.584,0.747c-0.717,0.498-1.297,1.178-1.743,2.042c-0.418,0.796-0.713,1.708-0.884,2.726
				c-0.173,1.021-0.256,2.009-0.256,2.966c0,1.252,0.103,2.416,0.303,3.48c0.207,1.069,0.53,2.021,0.978,2.858
				c0.444,0.841,1.004,1.492,1.681,1.969c0.675,0.483,1.509,0.72,2.505,0.72c1.637,0,2.937-0.79,3.896-2.373
				C123.382,76.101,123.86,73.917,123.86,71.127z"/>
		</g>
		<g>
			<path fill="#90624D" d="M146.145,76.275c0.589,0.651,1.027,1.366,1.306,2.148c0.285,0.773,0.426,1.682,0.426,2.713
				c0,2.46-0.913,4.485-2.728,6.082c-1.821,1.595-4.072,2.39-6.767,2.39c-1.243,0-2.482-0.192-3.728-0.58
				c-1.242-0.385-2.313-0.85-3.215-1.4l-0.844,1.433h-1.569l-0.272-9.533h1.588c0.326,1.179,0.705,2.241,1.146,3.187
				c0.435,0.951,1.017,1.837,1.736,2.659c0.68,0.774,1.472,1.386,2.384,1.846c0.909,0.456,1.964,0.687,3.162,0.687
				c0.903,0,1.691-0.12,2.366-0.354c0.676-0.237,1.218-0.568,1.639-1.003c0.418-0.433,0.729-0.938,0.93-1.521
				c0.203-0.582,0.307-1.254,0.307-2.013c0-1.112-0.315-2.149-0.944-3.111c-0.628-0.964-1.563-1.692-2.804-2.192
				c-0.849-0.336-1.822-0.71-2.925-1.123c-1.099-0.408-2.044-0.795-2.841-1.159c-1.569-0.708-2.79-1.632-3.661-2.774
				c-0.864-1.147-1.3-2.639-1.3-4.48c0-1.059,0.214-2.048,0.648-2.959c0.428-0.918,1.044-1.733,1.84-2.454
				c0.758-0.681,1.656-1.212,2.688-1.598c1.036-0.386,2.112-0.58,3.234-0.58c1.282,0,2.433,0.199,3.445,0.588
				c1.013,0.395,1.935,0.854,2.773,1.376l0.807-1.337h1.564l0.16,9.241h-1.59c-0.286-1.062-0.612-2.075-0.973-3.042
				c-0.357-0.966-0.826-1.844-1.398-2.628c-0.565-0.756-1.25-1.362-2.062-1.814c-0.807-0.452-1.801-0.675-2.979-0.675
				c-1.243,0-2.303,0.399-3.179,1.195c-0.876,0.8-1.313,1.772-1.313,2.92c0,1.206,0.279,2.202,0.842,2.993
				c0.565,0.791,1.382,1.443,2.453,1.951c0.954,0.46,1.892,0.853,2.817,1.188c0.916,0.335,1.811,0.688,2.677,1.068
				c0.783,0.341,1.539,0.726,2.261,1.157C144.979,75.196,145.611,75.7,146.145,76.275z"/>
			<path fill="#90624D" d="M171.399,80.845l-0.528,8.194h-23.1v-1.392c0.388-0.025,0.915-0.081,1.565-0.162
				c0.657-0.09,1.081-0.176,1.277-0.267c0.415-0.195,0.708-0.452,0.872-0.769c0.163-0.311,0.246-0.711,0.246-1.193V65.253
				c0-0.433-0.075-0.815-0.218-1.147c-0.142-0.335-0.445-0.607-0.9-0.816c-0.355-0.171-0.827-0.319-1.424-0.449
				c-0.594-0.131-1.065-0.21-1.419-0.235v-1.396h21.531v6.71h-1.474c-0.263-0.992-0.823-2.051-1.691-3.167
				c-0.872-1.12-1.694-1.731-2.484-1.835c-0.403-0.05-0.888-0.091-1.451-0.118c-0.563-0.024-1.2-0.039-1.919-0.039h-4.375v11.061
				h3.135c1.008,0,1.743-0.094,2.21-0.284c0.462-0.188,0.875-0.505,1.223-0.952c0.29-0.378,0.535-0.882,0.736-1.518
				c0.202-0.634,0.337-1.233,0.4-1.797h1.473v10.906h-1.473c-0.049-0.629-0.19-1.29-0.419-1.993
				c-0.228-0.694-0.467-1.207-0.718-1.518c-0.406-0.511-0.863-0.845-1.379-1c-0.518-0.155-1.197-0.236-2.054-0.236h-3.135v8.342
				c0,0.833,0.059,1.494,0.175,1.979c0.118,0.483,0.352,0.849,0.691,1.092c0.34,0.252,0.801,0.409,1.387,0.481
				c0.592,0.071,1.429,0.109,2.516,0.109c0.429,0,1.001,0,1.704,0c0.704,0,1.299-0.024,1.784-0.078
				c0.494-0.054,1.008-0.148,1.541-0.283c0.527-0.141,0.902-0.327,1.125-0.561c0.6-0.628,1.235-1.579,1.892-2.854
				c0.662-1.276,1.085-2.213,1.263-2.813H171.399z"/>
		</g>
		<rect x="112.67" y="83.479" fill="#90624D" width="12.203" height="1.998"/>
	</g>
</g>
</svg>
