<?xml version="1.0" encoding="utf-8"?>
<!-- Generator: Adobe Illustrator 16.2.1, SVG Export Plug-In . SVG Version: 6.00 Build 0)  -->
<!DOCTYPE svg PUBLIC "-//W3C//DTD SVG 1.1//EN" "http://www.w3.org/Graphics/SVG/1.1/DTD/svg11.dtd">
<svg version="1.1" xmlns="http://www.w3.org/2000/svg" xmlns:xlink="http://www.w3.org/1999/xlink" x="0px" y="0px" width="300px"
	 height="38px" viewBox="0 0 300 38" enable-background="new 0 0 300 38" xml:space="preserve">
<g id="Layer_2">
	<polyline display="none" fill="#7F7F7F" points="210,0 200.238,18.46 210,38 300,38 300,0 	"/>
	<path fill-rule="evenodd" clip-rule="evenodd" fill="#7F7F7F" d="M220,19.002c2.777,0.635,6.099,1.928,7.69,4.206
		c-0.699-1.653-1.592-2.857-3.178-3.881h48.44l3.375,3.035h0.979l-3.38-3.035h2.253l3.381,3.035h0.979l-3.381-3.035h2.247
		l3.383,3.035h0.983l-3.381-3.035h2.249l3.38,3.035H287l-3.38-3.035h0.409v-0.649h-0.409l3.38-3.04h-0.979l-3.38,3.04h-2.249
		l3.381-3.04h-0.983l-3.383,3.04h-2.247l3.381-3.04h-0.979l-3.381,3.04h-2.253l3.38-3.04h-0.979l-3.375,3.04h-48.44
		c1.586-1.028,2.479-2.233,3.178-3.886C226.099,17.069,222.777,18.368,220,19.002z"/>
</g>
<g id="Layer_1">
	<line fill="#212121" stroke="#7F7F7F" stroke-miterlimit="10" x1="200.953" y1="42.334" x2="200.953" y2="-4.402"/>
	<polyline display="none" fill="#212121" stroke="#EAEAEA" stroke-miterlimit="10" points="200.238,18.46 211.637,-0.742 
		200.238,19 	"/>
	<path fill="#212121" stroke="#EAEAEA" stroke-miterlimit="10" d="M300,0"/>
</g>
</svg>
