<?xml version="1.0" encoding="utf-8"?>
<!-- Generator: Adobe Illustrator 16.2.1, SVG Export Plug-In . SVG Version: 6.00 Build 0)  -->
<!DOCTYPE svg PUBLIC "-//W3C//DTD SVG 1.1//EN" "http://www.w3.org/Graphics/SVG/1.1/DTD/svg11.dtd">
<svg version="1.1" xmlns="http://www.w3.org/2000/svg" xmlns:xlink="http://www.w3.org/1999/xlink" x="0px" y="0px" width="100px"
	 height="100px" viewBox="0 0 100 100" enable-background="new 0 0 100 100" xml:space="preserve">
<g id="Layer_1">
	<rect fill="#FA6900" width="100" height="100"/>
</g>
<g id="Layer_2">
	<g>
		
			<rect x="21.736" y="22.06" fill="#FA6900" stroke="#FFFFFF" stroke-width="4" stroke-miterlimit="10" width="48.079" height="46.484"/>
		
			<rect x="51.578" y="50.823" fill="#FA6900" stroke="#FFFFFF" stroke-width="4" stroke-miterlimit="10" width="26.686" height="25.802"/>
		<rect x="48.294" y="58.714" fill="#FA6900" width="1.272" height="19.227"/>
		<rect x="66.635" y="47.525" fill="#FA6900" width="6.363" height="1.272"/>
		<g>
			<g>
				<path fill-rule="evenodd" clip-rule="evenodd" fill="#FFFFFF" d="M55.213,69.666v-5.222h6.067L48.132,51.317
					c0,0,2.254-2.268,2.813-2.826l1.062-1.06L65.24,60.679v-6.277h5.24v15.265H55.213z"/>
				<path fill="#FA6900" d="M52.005,49.553c4.854,4.859,9.737,9.748,14.735,14.75c0-2.895,0-5.635,0-8.401c0.764,0,1.482,0,2.24,0
					c0,4.078,0,8.152,0,12.265c-4.07,0-8.155,0-12.268,0c0-0.737,0-1.456,0-2.222c2.755,0,5.496,0,8.193,0
					c-4.895-4.886-9.787-9.77-14.656-14.632C50.914,50.644,51.447,50.109,52.005,49.553 M52.008,45.311l-2.123,2.119
					c-0.561,0.56-1.097,1.097-1.764,1.769l-2.107,2.123l2.117,2.114l9.525,9.509h-0.942h-3v3v2.222v3h3H68.98h3v-3V55.901v-3h-3
					h-2.24h-3v3v1.153l-9.612-9.622L52.008,45.311L52.008,45.311z"/>
			</g>
			
				<rect x="42.045" y="30.942" transform="matrix(0.7067 -0.7075 0.7075 0.7067 -17.434 43.108)" fill-rule="evenodd" clip-rule="evenodd" fill="#FFFFFF" width="2.467" height="23.28"/>
		</g>
	</g>
</g>
</svg>
