<?xml version="1.0" encoding="utf-8"?>
<!-- Generator: Adobe Illustrator 16.2.1, SVG Export Plug-In . SVG Version: 6.00 Build 0)  -->
<!DOCTYPE svg PUBLIC "-//W3C//DTD SVG 1.1//EN" "http://www.w3.org/Graphics/SVG/1.1/DTD/svg11.dtd">
<svg version="1.1" id="Layer_1" xmlns="http://www.w3.org/2000/svg" xmlns:xlink="http://www.w3.org/1999/xlink" x="0px" y="0px"
	 width="46.737px" height="24.912px" viewBox="0 0 46.737 24.912" enable-background="new 0 0 46.737 24.912" xml:space="preserve">
<path fill="#90624D" d="M1.466,24.104c1.366-1.165,2.692-2.29,4.015-3.427c1.679-1.437,3.354-2.878,5.042-4.301
	c1.496-1.266,3.023-2.504,4.519-3.779c1.624-1.393,3.235-2.829,4.855-4.246c1.063-0.93,2.116-1.881,3.192-2.781
	c0.143-0.119,0.463-0.09,0.609,0.038c1.718,1.471,3.417,2.972,5.124,4.461c1.846,1.611,3.695,3.225,5.548,4.832
	c1.857,1.609,3.72,3.209,5.578,4.818c1.633,1.42,3.266,2.846,4.899,4.27c0.108,0.091,0.23,0.149,0.429,0.265
	c0.325-1.071,0.672-2.101,0.933-3.163c0.044-0.158-0.268-0.518-0.461-0.693c-1.728-1.521-3.456-3.042-5.208-4.525
	c-1.642-1.422-3.312-2.795-4.972-4.218c-1.622-1.399-3.215-2.844-4.839-4.241c-1.247-1.082-2.519-2.113-3.765-3.187
	c-0.956-0.816-1.88-1.675-2.823-2.51c-0.346-0.309-0.685-0.455-1.088-0.092c-1.613,1.429-3.228,2.851-4.854,4.253
	c-1.412,1.218-2.853,2.382-4.264,3.604c-1.616,1.392-3.191,2.821-4.787,4.229c-0.907,0.796-1.813,1.587-2.737,2.354
	c-1.393,1.161-2.798,2.291-4.209,3.439c-0.246,0.198-0.501,0.402-0.743,0.605c-0.815,0.679-0.823,0.679-0.556,1.84
	C1.083,22.675,1.278,23.372,1.466,24.104z"/>
</svg>
