<?xml version="1.0" encoding="utf-8"?>
<!-- Generator: Adobe Illustrator 16.2.1, SVG Export Plug-In . SVG Version: 6.00 Build 0)  -->
<!DOCTYPE svg PUBLIC "-//W3C//DTD SVG 1.1//EN" "http://www.w3.org/Graphics/SVG/1.1/DTD/svg11.dtd">
<svg version="1.1" id="Layer_1" xmlns="http://www.w3.org/2000/svg" xmlns:xlink="http://www.w3.org/1999/xlink" x="0px" y="0px"
	 width="200px" height="41px" viewBox="0 0 200 41" enable-background="new 0 0 200 41" xml:space="preserve">
<g enable-background="new    ">
	<path fill="#7F7F7F" d="M71.685,21.661l-0.145,2.245h-6.327v-0.381c0.107-0.008,0.25-0.022,0.43-0.046s0.295-0.048,0.349-0.073
		c0.115-0.053,0.194-0.123,0.239-0.209c0.045-0.086,0.067-0.195,0.067-0.328v-5.479c0-0.117-0.02-0.223-0.059-0.313
		c-0.04-0.092-0.122-0.166-0.247-0.224c-0.097-0.046-0.227-0.087-0.389-0.123c-0.163-0.036-0.293-0.058-0.39-0.064v-0.381h5.897
		v1.836h-0.403c-0.072-0.271-0.227-0.561-0.464-0.867c-0.238-0.306-0.465-0.474-0.68-0.502c-0.111-0.015-0.244-0.025-0.397-0.032
		s-0.33-0.011-0.526-0.011h-1.198v3.029h0.859c0.276,0,0.477-0.026,0.604-0.078c0.127-0.052,0.239-0.139,0.336-0.26
		c0.079-0.104,0.146-0.243,0.201-0.417c0.056-0.174,0.092-0.337,0.11-0.491h0.403v2.986h-0.403
		c-0.014-0.172-0.053-0.354-0.115-0.545c-0.063-0.191-0.128-0.33-0.196-0.416c-0.111-0.141-0.237-0.231-0.379-0.274
		c-0.141-0.043-0.328-0.064-0.561-0.064h-0.859v2.284c0,0.229,0.016,0.409,0.048,0.542c0.032,0.132,0.095,0.232,0.188,0.3
		c0.093,0.068,0.22,0.112,0.381,0.132s0.39,0.029,0.688,0.029c0.118,0,0.274,0,0.467,0s0.356-0.007,0.489-0.021
		c0.136-0.015,0.276-0.04,0.422-0.078c0.145-0.037,0.248-0.089,0.309-0.153c0.165-0.172,0.337-0.432,0.519-0.781
		c0.181-0.349,0.296-0.605,0.346-0.771H71.685z"/>
	<path fill="#7F7F7F" d="M85.516,23.906H81.95v-0.381c0.293-0.008,0.531-0.035,0.711-0.084c0.181-0.048,0.271-0.122,0.271-0.223
		c0-0.054-0.041-0.165-0.124-0.333c-0.082-0.168-0.188-0.356-0.317-0.564c-0.143-0.229-0.313-0.499-0.51-0.809
		c-0.197-0.311-0.392-0.606-0.585-0.89c-0.315,0.415-0.673,0.916-1.075,1.502s-0.602,0.931-0.602,1.035
		c0,0.117,0.054,0.204,0.164,0.26s0.35,0.091,0.723,0.105v0.381H77.76v-0.381c0.093-0.008,0.212-0.021,0.357-0.041
		c0.146-0.02,0.264-0.053,0.357-0.1c0.186-0.1,0.336-0.208,0.448-0.324c0.113-0.116,0.227-0.254,0.341-0.411
		c0.229-0.315,0.522-0.708,0.88-1.18c0.358-0.471,0.675-0.899,0.95-1.287c-0.208-0.304-0.473-0.689-0.795-1.156
		c-0.323-0.468-0.667-0.968-1.032-1.501c-0.154-0.226-0.274-0.385-0.362-0.479c-0.087-0.093-0.205-0.173-0.351-0.241
		c-0.086-0.039-0.205-0.07-0.356-0.094s-0.272-0.039-0.362-0.046v-0.381h3.529v0.381c-0.207,0.007-0.422,0.033-0.646,0.078
		s-0.335,0.113-0.335,0.207c0,0.067,0.045,0.187,0.134,0.356c0.09,0.17,0.195,0.353,0.317,0.546c0.125,0.2,0.265,0.423,0.419,0.666
		s0.342,0.524,0.564,0.844c0.404-0.548,0.753-1.043,1.046-1.483c0.293-0.44,0.44-0.727,0.44-0.859c0-0.114-0.067-0.198-0.202-0.253
		c-0.135-0.053-0.361-0.087-0.68-0.102v-0.381h2.841v0.381c-0.089,0.004-0.207,0.017-0.352,0.04c-0.146,0.023-0.266,0.057-0.363,0.1
		c-0.186,0.09-0.325,0.187-0.417,0.29c-0.091,0.104-0.214,0.254-0.368,0.451c-0.286,0.37-0.55,0.717-0.792,1.041
		c-0.242,0.325-0.533,0.72-0.873,1.187c0.286,0.407,0.605,0.871,0.958,1.39c0.352,0.519,0.689,1.014,1.012,1.485
		c0.111,0.161,0.238,0.314,0.381,0.459c0.143,0.146,0.26,0.245,0.349,0.298c0.086,0.051,0.201,0.082,0.347,0.095
		c0.145,0.013,0.268,0.021,0.368,0.024V23.906z"/>
	<path fill="#7F7F7F" d="M97.618,18.164c0,0.398-0.078,0.75-0.233,1.056c-0.156,0.307-0.372,0.56-0.647,0.761
		c-0.272,0.2-0.571,0.347-0.897,0.439c-0.326,0.094-0.671,0.141-1.037,0.141h-0.854v2.309c0,0.126,0.021,0.236,0.062,0.331
		c0.041,0.095,0.126,0.167,0.255,0.218c0.064,0.024,0.178,0.048,0.341,0.069c0.163,0.021,0.312,0.034,0.449,0.038v0.381h-3.271
		v-0.381c0.086-0.008,0.21-0.021,0.373-0.038c0.163-0.018,0.277-0.041,0.341-0.069c0.107-0.047,0.185-0.115,0.234-0.205
		c0.048-0.089,0.072-0.203,0.072-0.344v-5.5c0-0.125-0.018-0.237-0.054-0.338s-0.12-0.176-0.252-0.226
		c-0.136-0.047-0.271-0.08-0.406-0.1c-0.134-0.02-0.25-0.033-0.346-0.04v-0.381h3.48c0.709,0,1.285,0.171,1.727,0.513
		C97.396,17.14,97.618,17.596,97.618,18.164z M95.985,19.465c0.122-0.172,0.202-0.351,0.242-0.535s0.059-0.35,0.059-0.496
		c0-0.205-0.024-0.412-0.072-0.623c-0.049-0.212-0.132-0.396-0.25-0.554c-0.125-0.168-0.29-0.299-0.494-0.392
		c-0.204-0.094-0.458-0.141-0.763-0.141h-0.757v3.368h0.548c0.387,0,0.701-0.06,0.943-0.18
		C95.681,19.793,95.863,19.644,95.985,19.465z"/>
	<path fill="#7F7F7F" d="M111.353,23.906h-3.169v-0.381c0.279-0.019,0.512-0.055,0.696-0.107c0.184-0.055,0.276-0.12,0.276-0.199
		c0-0.032-0.004-0.071-0.011-0.118c-0.008-0.047-0.018-0.088-0.032-0.124l-0.631-1.707h-2.676c-0.101,0.25-0.182,0.469-0.245,0.654
		c-0.062,0.187-0.119,0.358-0.169,0.516c-0.047,0.154-0.079,0.279-0.097,0.377c-0.019,0.096-0.027,0.175-0.027,0.236
		c0,0.143,0.113,0.254,0.339,0.332c0.226,0.079,0.479,0.126,0.763,0.141v0.381h-2.871v-0.381c0.094-0.008,0.21-0.028,0.35-0.062
		s0.254-0.079,0.344-0.137c0.144-0.097,0.254-0.198,0.333-0.304s0.155-0.251,0.231-0.438c0.383-0.956,0.805-2.03,1.268-3.223
		c0.461-1.192,0.873-2.254,1.234-3.185h0.43l2.541,6.574c0.054,0.139,0.114,0.252,0.183,0.338s0.163,0.17,0.284,0.252
		c0.083,0.051,0.19,0.093,0.322,0.127c0.133,0.034,0.244,0.053,0.334,0.057V23.906z M108.286,20.791l-1.155-2.958l-1.138,2.958
		H108.286z"/>
	<path fill="#7F7F7F" d="M125.199,16.666c-0.101,0.004-0.254,0.032-0.462,0.086s-0.356,0.109-0.445,0.166
		c-0.129,0.09-0.216,0.262-0.261,0.516c-0.045,0.255-0.067,0.577-0.067,0.967v5.581h-0.467l-4.619-6.235v3.932
		c0,0.439,0.027,0.778,0.083,1.015s0.141,0.404,0.255,0.505c0.082,0.079,0.252,0.152,0.51,0.221
		c0.258,0.067,0.429,0.104,0.511,0.107v0.381h-3.126v-0.381c0.097-0.008,0.26-0.043,0.488-0.105c0.229-0.062,0.373-0.119,0.43-0.169
		c0.126-0.101,0.212-0.253,0.258-0.459c0.047-0.206,0.07-0.558,0.07-1.056v-3.754c0-0.165-0.028-0.33-0.086-0.494
		c-0.058-0.165-0.135-0.292-0.23-0.382c-0.129-0.118-0.304-0.22-0.524-0.304c-0.22-0.084-0.398-0.13-0.534-0.137v-0.381h2.178
		l4.283,5.81v-3.624c0-0.444-0.028-0.785-0.086-1.023c-0.057-0.238-0.139-0.396-0.246-0.476c-0.101-0.067-0.265-0.134-0.492-0.198
		s-0.4-0.101-0.518-0.107v-0.381h3.099V16.666z"/>
	<path fill="#7F7F7F" d="M138.87,20.141c0,0.648-0.122,1.211-0.365,1.688c-0.244,0.476-0.561,0.866-0.951,1.17
		c-0.394,0.305-0.836,0.532-1.326,0.683c-0.491,0.15-0.998,0.226-1.521,0.226h-3.158v-0.381c0.104,0,0.239-0.011,0.405-0.03
		c0.167-0.02,0.277-0.042,0.33-0.067c0.107-0.046,0.186-0.115,0.234-0.206c0.048-0.092,0.072-0.202,0.072-0.331v-5.5
		c0-0.121-0.021-0.23-0.062-0.327s-0.123-0.174-0.245-0.231c-0.11-0.053-0.23-0.093-0.359-0.117
		c-0.129-0.025-0.24-0.042-0.333-0.049v-0.381h3.33c0.458,0,0.909,0.07,1.354,0.212s0.831,0.332,1.16,0.571
		c0.447,0.319,0.799,0.736,1.053,1.252S138.87,19.443,138.87,20.141z M137.554,20.139c0-0.512-0.068-0.975-0.204-1.388
		s-0.335-0.773-0.597-1.081c-0.246-0.294-0.55-0.524-0.91-0.692c-0.359-0.168-0.76-0.253-1.2-0.253
		c-0.146,0-0.312,0.003-0.497,0.009c-0.185,0.005-0.321,0.01-0.41,0.013v5.855c0,0.326,0.095,0.551,0.284,0.677
		c0.189,0.125,0.481,0.188,0.876,0.188c0.454,0,0.852-0.08,1.191-0.241c0.341-0.161,0.616-0.385,0.828-0.671
		c0.222-0.301,0.384-0.648,0.485-1.044C137.503,21.114,137.554,20.657,137.554,20.139z"/>
</g>
<path fill="#90624D" d="M156.389,24.083c0.438-0.374,0.864-0.735,1.289-1.101c0.539-0.461,1.077-0.924,1.619-1.381
	c0.48-0.406,0.971-0.803,1.451-1.213c0.521-0.447,1.039-0.908,1.559-1.363c0.342-0.299,0.68-0.604,1.025-0.893
	c0.046-0.038,0.148-0.029,0.195,0.012c0.552,0.472,1.098,0.954,1.646,1.432c0.593,0.518,1.187,1.036,1.781,1.552
	c0.597,0.517,1.194,1.03,1.791,1.547c0.524,0.456,1.049,0.914,1.573,1.371c0.035,0.029,0.074,0.048,0.138,0.085
	c0.104-0.344,0.216-0.675,0.3-1.016c0.014-0.051-0.086-0.166-0.148-0.223c-0.555-0.488-1.11-0.976-1.672-1.453
	c-0.528-0.456-1.064-0.897-1.597-1.354c-0.521-0.449-1.032-0.913-1.554-1.362c-0.4-0.347-0.809-0.678-1.209-1.023
	c-0.307-0.262-0.604-0.538-0.906-0.806c-0.111-0.099-0.22-0.146-0.35-0.03c-0.518,0.459-1.036,0.916-1.559,1.366
	c-0.453,0.391-0.916,0.765-1.369,1.157c-0.518,0.447-1.024,0.906-1.537,1.358c-0.291,0.256-0.582,0.51-0.879,0.756
	c-0.447,0.373-0.898,0.735-1.351,1.104c-0.079,0.064-0.161,0.129-0.239,0.195c-0.261,0.217-0.264,0.217-0.178,0.59
	C156.266,23.624,156.328,23.848,156.389,24.083z"/>
</svg>
