<?xml version="1.0" encoding="utf-8"?>
<!-- Generator: Adobe Illustrator 16.2.1, SVG Export Plug-In . SVG Version: 6.00 Build 0)  -->
<!DOCTYPE svg PUBLIC "-//W3C//DTD SVG 1.1//EN" "http://www.w3.org/Graphics/SVG/1.1/DTD/svg11.dtd">
<svg version="1.1" id="Layer_1" xmlns="http://www.w3.org/2000/svg" xmlns:xlink="http://www.w3.org/1999/xlink" x="0px" y="0px"
	 width="50px" height="50px" viewBox="0 0 50 50" enable-background="new 0 0 50 50" xml:space="preserve">
<path fill="#A27259" d="M24.908,20.418v-0.01c0.255-2.708,0.96-5.673,2.312-7.96c1.287-2.169,0.564-4.693-2.115-4.945
	c0,0-0.128-0.016-0.202-0.015c-0.074-0.001-0.221,0.015-0.221,0.015c-2.679,0.251-3.373,2.776-2.086,4.945
	C23.951,14.735,24.653,17.709,24.908,20.418z M21.899,23.234c0.806-0.623,1.719-1.25,2.746-1.863
	c-4.17-2.237-8.883-3.133-12.758-2.629c-5.86,0.662-9.352,3.636-9.696,4.006c-1.864,1.528-2.046,3.774-1.098,4.389
	c1.076,0.738,2.622,0.02,3.981-1.056c0.28-0.287,2.64-2.71,7.34-3.657C15.104,21.84,18.548,22.083,21.899,23.234z M27.156,17.765
	c2.627-3.506,3.438-0.632,5.279-0.583c3.811,0.1,3.949-5.578-0.201-5.598c-4.416-0.022-6.52,5.757-6.606,8.553
	C25.628,20.136,26.392,18.78,27.156,17.765z M17.377,17.182c1.84-0.049,2.651-2.923,5.279,0.583
	c0.762,1.016,1.525,2.372,1.525,2.372c-0.085-2.795-2.187-8.575-6.605-8.553C13.426,11.604,13.565,17.282,17.377,17.182z
	 M20.269,28.635c0.876,0.171,1.765,0.436,2.625,0.812c0.547-0.527,1.121-1.006,1.729-1.43c-0.759-0.489-1.558-0.892-2.376-1.222
	C21.512,27.375,20.847,27.991,20.269,28.635z M17.075,28.429c0.461-0.743,1.089-1.606,1.922-2.527
	c-1.087-0.17-2.146-0.221-3.12-0.141c-4.037,0.313-6.455,2.448-6.673,2.699c-1.266,1.089-1.275,2.671-0.545,3.107
	c0.822,0.522,1.896,0.055,2.762-0.653c0.177-0.185,1.663-1.83,4.78-2.381C16.476,28.48,16.772,28.451,17.075,28.429z M25.347,24.785
	c0.824,0.469,1.618,1.004,2.374,1.603c0.807-0.303,1.664-0.538,2.562-0.716c-0.035-0.032-0.066-0.065-0.102-0.096
	c-0.662-0.709-1.383-1.348-2.131-1.948C27.139,23.937,26.229,24.325,25.347,24.785z M47.809,22.748
	c-0.346-0.37-3.836-3.344-9.695-4.006c-3.936-0.514-8.738,0.414-12.958,2.729c-1.303,0.754-2.425,1.531-3.385,2.304
	c-0.229,0.187-0.462,0.37-0.685,0.569c-0.031,0.028-0.065,0.055-0.096,0.083c-0.406,0.364-0.798,0.745-1.172,1.147
	c-0.142,0.128-0.277,0.26-0.41,0.392c-0.001,0-0.002,0-0.003-0.001c-0.826,0.892-1.449,1.729-1.916,2.46
	c-3.013,5.062-2.129,11.674,0.699,14.858c2.389,2.954,5.104,3.452,6.465,3.53c-0.057,0.004,0.061,0.013,0.232,0.013
	c0.293,0.008,0.484-0.007,0.404-0.013c1.343-0.068,4.099-0.538,6.519-3.532c2.766-3.112,3.664-9.497,0.887-14.513
	c-0.824-0.112-1.619-0.104-2.383-0.01c3.535,4.22,3.17,10.653,0.66,14.135c-0.816,1.225-2.072,2.001-3.27,2.463
	c0.631-0.45,1.26-1.092,1.779-2.004c1.961-2.984,1.354-8.293-1.508-12.188c-0.348-0.488-0.734-0.929-1.141-1.347
	c-0.623,0.309-1.17,0.649-1.63,0.984c0.523,0.403,1.02,0.852,1.458,1.369c2.15,2.431,3.166,5.75,2.877,8.504v-0.016
	c-0.285,2.522-1.775,4.527-4.585,4.527c-2.807,0-4.411-2.521-4.642-4.699c0,0-0.003,0.002-0.005,0.003
	c-0.227-2.716,0.788-5.941,2.891-8.319c0.308-0.365,0.647-0.691,1-0.999c1.45-1.328,4.724-3.238,8.478-2.749
	c0.344,0.021,0.678,0.053,0.984,0.11c3.117,0.552,4.604,2.197,4.781,2.382c0.865,0.708,1.939,1.175,2.762,0.65
	c0.73-0.435,0.721-2.016-0.545-3.104c-0.219-0.251-2.635-2.386-6.674-2.699c-0.811-0.067-1.68-0.048-2.576,0.058v0.006
	c-1.715,0.238-3.264,0.686-4.662,1.352c-0.014,0.006-0.029,0.012-0.043,0.019c-1.288,0.618-2.445,1.431-3.497,2.43
	c-0.476,0.47-0.921,0.975-1.32,1.536c-2.863,3.896-3.261,9.271-1.3,12.255c0.434,0.761,0.925,1.329,1.42,1.753
	c-1.112-0.496-2.258-1.249-3.069-2.333c-2.55-3.54-2.827-10.082,0.907-14.282c0.01,0,0.02,0.003,0.03,0.004
	c1.914-2.191,4.861-4.134,7.86-5.192c-0.004-0.002-0.006-0.007-0.012-0.009c3.471-1.266,7.072-1.538,9.861-0.932
	c4.703,0.947,7.061,3.37,7.342,3.657c1.357,1.075,2.906,1.793,3.982,1.054C49.855,26.52,49.672,24.276,47.809,22.748z"/>
</svg>
