<?xml version="1.0" encoding="utf-8"?>
<!-- Generator: Adobe Illustrator 16.2.1, SVG Export Plug-In . SVG Version: 6.00 Build 0)  -->
<!DOCTYPE svg PUBLIC "-//W3C//DTD SVG 1.1//EN" "http://www.w3.org/Graphics/SVG/1.1/DTD/svg11.dtd">
<svg version="1.1" id="Layer_1" xmlns="http://www.w3.org/2000/svg" xmlns:xlink="http://www.w3.org/1999/xlink" x="0px" y="0px"
	 width="200px" height="41px" viewBox="0 0 200 41" enable-background="new 0 0 200 41" xml:space="preserve">
<g id="Layer_1_copy" display="none">
	
		<text transform="matrix(1 0 0 1 72.751 23.9062)" display="inline" fill="#7F7F7F" font-family="'Georgia'" font-size="11" letter-spacing="4">EXPAND</text>
	<path display="inline" fill="#020202" d="M156.389,24.083c0.438-0.374,0.864-0.735,1.289-1.101
		c0.539-0.461,1.077-0.924,1.619-1.381c0.48-0.406,0.971-0.802,1.451-1.213c0.521-0.447,1.039-0.908,1.559-1.363
		c0.342-0.299,0.68-0.604,1.025-0.893c0.046-0.038,0.148-0.029,0.195,0.012c0.552,0.472,1.098,0.954,1.646,1.432
		c0.593,0.518,1.187,1.036,1.781,1.552c0.597,0.517,1.194,1.03,1.791,1.547c0.524,0.456,1.049,0.914,1.573,1.371
		c0.035,0.029,0.074,0.048,0.138,0.085c0.104-0.344,0.216-0.675,0.3-1.016c0.014-0.051-0.086-0.166-0.148-0.223
		c-0.555-0.488-1.111-0.975-1.672-1.453c-0.529-0.455-1.065-0.897-1.597-1.354c-0.521-0.449-1.032-0.913-1.554-1.362
		c-0.4-0.347-0.809-0.678-1.209-1.023c-0.307-0.262-0.604-0.538-0.906-0.806c-0.111-0.099-0.22-0.146-0.35-0.03
		c-0.518,0.459-1.036,0.916-1.559,1.366c-0.453,0.391-0.916,0.765-1.369,1.157c-0.517,0.447-1.024,0.906-1.537,1.358
		c-0.291,0.256-0.582,0.51-0.879,0.756c-0.447,0.373-0.898,0.736-1.35,1.105c-0.079,0.064-0.161,0.129-0.24,0.195
		c-0.26,0.217-0.263,0.217-0.177,0.59C156.266,23.624,156.328,23.848,156.389,24.083z"/>
</g>
<g id="Layer_1_1_">
	<g enable-background="new    ">
		<path fill="#7F7F7F" d="M108.168,23.906h-3.164v-0.381c0.086-0.008,0.211-0.019,0.373-0.033c0.163-0.014,0.275-0.035,0.336-0.064
			c0.107-0.043,0.186-0.107,0.236-0.195s0.075-0.201,0.075-0.342v-2.712h-3.583v2.653c0,0.125,0.021,0.23,0.062,0.316
			s0.123,0.162,0.244,0.227c0.061,0.031,0.169,0.064,0.325,0.096c0.155,0.033,0.278,0.051,0.368,0.055v0.381h-3.164v-0.381
			c0.086-0.008,0.21-0.019,0.373-0.033c0.163-0.014,0.275-0.035,0.336-0.064c0.107-0.043,0.186-0.107,0.236-0.195
			s0.075-0.201,0.075-0.342v-5.5c0-0.114-0.023-0.219-0.069-0.313c-0.047-0.095-0.127-0.169-0.242-0.224
			c-0.097-0.046-0.214-0.087-0.352-0.123c-0.138-0.036-0.257-0.058-0.357-0.064v-0.381h3.164v0.381
			c-0.101,0.004-0.224,0.02-0.368,0.049c-0.146,0.028-0.253,0.055-0.325,0.08c-0.121,0.043-0.203,0.114-0.244,0.215
			s-0.062,0.209-0.062,0.328v2.363h3.583v-2.311c0-0.114-0.023-0.219-0.069-0.313c-0.047-0.095-0.127-0.169-0.242-0.224
			c-0.097-0.046-0.214-0.087-0.352-0.123c-0.139-0.036-0.258-0.058-0.357-0.064v-0.381h3.164v0.381
			c-0.101,0.004-0.224,0.02-0.368,0.049c-0.146,0.028-0.253,0.055-0.325,0.08c-0.121,0.043-0.203,0.114-0.244,0.215
			s-0.062,0.209-0.062,0.328v5.494c0,0.125,0.021,0.23,0.062,0.316s0.123,0.162,0.244,0.227c0.061,0.031,0.169,0.064,0.325,0.096
			c0.155,0.033,0.278,0.051,0.368,0.055V23.906z"/>
		<path fill="#7F7F7F" d="M117.566,23.906h-3.433v-0.381c0.097-0.008,0.236-0.019,0.419-0.033c0.183-0.014,0.312-0.035,0.387-0.064
			c0.118-0.046,0.204-0.109,0.258-0.19c0.054-0.08,0.08-0.192,0.08-0.335v-5.521c0-0.126-0.02-0.23-0.059-0.314
			s-0.133-0.155-0.279-0.213c-0.107-0.043-0.242-0.083-0.406-0.12c-0.162-0.038-0.295-0.061-0.399-0.067v-0.381h3.433v0.381
			c-0.111,0.004-0.244,0.017-0.398,0.04c-0.153,0.023-0.287,0.053-0.402,0.089c-0.137,0.043-0.228,0.113-0.273,0.209
			c-0.047,0.098-0.07,0.205-0.07,0.322v5.517c0,0.118,0.025,0.223,0.078,0.314c0.052,0.091,0.141,0.163,0.266,0.218
			c0.075,0.028,0.197,0.06,0.367,0.094c0.171,0.034,0.314,0.053,0.434,0.057V23.906z"/>
		<path fill="#7F7F7F" d="M130.815,20.141c0,0.648-0.122,1.211-0.365,1.688c-0.244,0.476-0.561,0.866-0.951,1.17
			c-0.394,0.305-0.836,0.532-1.326,0.683c-0.491,0.15-0.998,0.226-1.521,0.226h-3.158v-0.381c0.104,0,0.239-0.011,0.405-0.03
			c0.167-0.02,0.276-0.042,0.331-0.067c0.107-0.046,0.185-0.115,0.233-0.206c0.048-0.092,0.072-0.202,0.072-0.331v-5.5
			c0-0.121-0.021-0.23-0.062-0.327s-0.123-0.174-0.244-0.231c-0.111-0.053-0.231-0.093-0.36-0.117
			c-0.129-0.025-0.239-0.042-0.333-0.049v-0.381h3.33c0.458,0,0.909,0.07,1.354,0.212s0.831,0.332,1.16,0.571
			c0.447,0.319,0.799,0.736,1.053,1.252S130.815,19.443,130.815,20.141z M129.499,20.139c0-0.512-0.068-0.975-0.204-1.388
			s-0.335-0.773-0.597-1.081c-0.246-0.294-0.55-0.524-0.91-0.692c-0.359-0.168-0.76-0.253-1.2-0.253
			c-0.146,0-0.312,0.003-0.497,0.009c-0.185,0.005-0.321,0.01-0.41,0.013v5.855c0,0.326,0.095,0.551,0.284,0.677
			c0.189,0.125,0.481,0.188,0.876,0.188c0.454,0,0.852-0.08,1.191-0.241c0.341-0.161,0.616-0.385,0.828-0.671
			c0.222-0.301,0.384-0.648,0.485-1.044C129.448,21.114,129.499,20.657,129.499,20.139z"/>
		<path fill="#7F7F7F" d="M143.156,21.661l-0.145,2.245h-6.327v-0.381c0.107-0.008,0.251-0.022,0.43-0.046s0.296-0.048,0.349-0.073
			c0.115-0.053,0.194-0.123,0.239-0.209s0.067-0.195,0.067-0.328v-5.479c0-0.117-0.02-0.223-0.059-0.313
			c-0.04-0.092-0.122-0.166-0.248-0.224c-0.096-0.046-0.226-0.087-0.389-0.123s-0.293-0.058-0.39-0.064v-0.381h5.897v1.836h-0.402
			c-0.072-0.271-0.227-0.561-0.465-0.867c-0.238-0.306-0.465-0.474-0.68-0.502c-0.111-0.015-0.243-0.025-0.397-0.032
			s-0.329-0.011-0.526-0.011h-1.197v3.029h0.859c0.275,0,0.477-0.026,0.604-0.078s0.239-0.139,0.336-0.26
			c0.079-0.104,0.146-0.243,0.201-0.417s0.093-0.337,0.11-0.491h0.403v2.986h-0.403c-0.015-0.172-0.053-0.354-0.115-0.545
			s-0.128-0.33-0.196-0.416c-0.111-0.141-0.237-0.231-0.379-0.274s-0.328-0.064-0.561-0.064h-0.859v2.284
			c0,0.229,0.016,0.409,0.048,0.542c0.032,0.132,0.095,0.232,0.188,0.3c0.093,0.068,0.22,0.112,0.381,0.132s0.391,0.029,0.688,0.029
			c0.118,0,0.273,0,0.467,0s0.356-0.007,0.489-0.021c0.136-0.015,0.276-0.04,0.422-0.078c0.145-0.037,0.248-0.089,0.309-0.153
			c0.165-0.172,0.338-0.432,0.519-0.781c0.181-0.349,0.296-0.605,0.346-0.771H143.156z"/>
	</g>
	<path fill="#020202" d="M156.389,16.847c0.438,0.374,0.864,0.736,1.289,1.1c0.539,0.461,1.077,0.924,1.619,1.382
		c0.48,0.406,0.971,0.801,1.451,1.213c0.521,0.447,1.039,0.908,1.559,1.362c0.342,0.3,0.68,0.604,1.025,0.894
		c0.046,0.039,0.148,0.029,0.195-0.012c0.552-0.472,1.098-0.953,1.646-1.433c0.593-0.518,1.187-1.036,1.781-1.552
		c0.597-0.517,1.194-1.03,1.791-1.547c0.524-0.456,1.049-0.914,1.573-1.371c0.035-0.029,0.074-0.048,0.138-0.085
		c0.104,0.344,0.216,0.675,0.3,1.016c0.014,0.05-0.086,0.166-0.148,0.223c-0.555,0.488-1.111,0.974-1.672,1.453
		c-0.529,0.454-1.065,0.897-1.597,1.353c-0.521,0.449-1.032,0.913-1.554,1.362c-0.4,0.346-0.809,0.678-1.209,1.022
		c-0.307,0.263-0.604,0.537-0.906,0.806c-0.111,0.099-0.22,0.146-0.35,0.028c-0.518-0.459-1.036-0.916-1.559-1.364
		c-0.453-0.392-0.916-0.765-1.369-1.157c-0.517-0.445-1.024-0.906-1.537-1.358c-0.291-0.256-0.582-0.51-0.879-0.756
		c-0.447-0.373-0.898-0.737-1.35-1.105c-0.079-0.065-0.161-0.13-0.24-0.196c-0.26-0.216-0.263-0.216-0.177-0.59
		C156.266,17.306,156.328,17.082,156.389,16.847z"/>
</g>
</svg>
