<?xml version="1.0" encoding="utf-8"?>
<!-- Generator: Adobe Illustrator 16.2.1, SVG Export Plug-In . SVG Version: 6.00 Build 0)  -->
<!DOCTYPE svg PUBLIC "-//W3C//DTD SVG 1.1//EN" "http://www.w3.org/Graphics/SVG/1.1/DTD/svg11.dtd">
<svg version="1.1" id="Layer_1" xmlns="http://www.w3.org/2000/svg" xmlns:xlink="http://www.w3.org/1999/xlink" x="0px" y="0px"
	 width="82px" height="82px" viewBox="0 0 82 82" enable-background="new 0 0 82 82" xml:space="preserve">
<g>
	<path fill="#FFFFFF" d="M39.235,44.948c-0.836,1.447-1.67,2.893-2.506,4.337c0.007,0.014,0.013,0.025,0.019,0.03
		c0.367,0.212,0.744,0.41,1.144,0.553c0.761,0.271,1.487,0.183,2.187-0.204c0.546-0.3,1.04-0.67,1.506-1.079
		c0.856-0.75,1.603-1.6,2.281-2.51c1.265-1.695,2.287-3.523,3.043-5.499c0.32-0.836,0.576-1.688,0.738-2.568
		c0.111-0.608,0.172-1.22,0.144-1.837c-0.033-0.678-0.286-1.258-0.794-1.722c-0.263-0.243-0.561-0.443-0.866-0.629
		c-0.113-0.068-0.229-0.134-0.352-0.208c-0.841,1.454-1.675,2.899-2.512,4.348c0.013,0.013,0.021,0.026,0.032,0.033
		c0.397,0.252,0.609,0.628,0.708,1.078c0.075,0.35,0.075,0.703,0.029,1.057c-0.128,1.021-0.516,1.945-1.052,2.814
		c-0.337,0.544-0.73,1.036-1.216,1.456c-0.303,0.266-0.633,0.492-1.018,0.633c-0.498,0.187-0.988,0.188-1.464-0.063
		C39.274,44.962,39.258,44.956,39.235,44.948z"/>
	<path fill="#FFFFFF" d="M36.016,49.163c0.196-0.01,0.355-0.091,0.465-0.257c0.058-0.089,0.11-0.185,0.164-0.277
		c0.729-1.266,1.457-2.529,2.189-3.793c0.048-0.086,0.096-0.168,0.106-0.266c0.027-0.239-0.058-0.428-0.259-0.558
		c-0.087-0.054-0.175-0.102-0.262-0.15c-0.329-0.19-0.655-0.382-0.984-0.568c-0.223-0.125-0.461-0.113-0.642,0.038
		c-0.064,0.052-0.118,0.123-0.16,0.196c-0.227,0.384-0.448,0.771-0.672,1.157c-0.552,0.955-1.102,1.91-1.653,2.866
		c-0.073,0.123-0.122,0.253-0.1,0.397c0.027,0.191,0.127,0.336,0.296,0.432c0.284,0.161,0.569,0.327,0.852,0.491
		c0.122,0.07,0.243,0.139,0.364,0.21C35.812,49.132,35.911,49.165,36.016,49.163z"/>
	<path fill="#FFFFFF" d="M43.58,31.975c-0.169,0.007-0.332,0.098-0.441,0.28c-0.106,0.181-0.212,0.364-0.313,0.546
		c-0.672,1.163-1.343,2.325-2.014,3.487c-0.037,0.064-0.073,0.129-0.094,0.199c-0.075,0.229,0.015,0.475,0.211,0.614
		c0.02,0.017,0.044,0.029,0.065,0.043c0.397,0.23,0.797,0.461,1.198,0.692c0.104,0.061,0.215,0.095,0.336,0.089
		c0.216-0.014,0.367-0.122,0.473-0.305c0.222-0.384,0.442-0.767,0.662-1.149c0.556-0.961,1.111-1.923,1.667-2.883
		c0.065-0.114,0.111-0.233,0.103-0.367c-0.016-0.197-0.107-0.35-0.274-0.452c-0.124-0.073-0.253-0.144-0.375-0.217
		c-0.28-0.162-0.564-0.323-0.843-0.485C43.839,32.009,43.737,31.975,43.58,31.975z"/>
</g>
</svg>
