<?xml version="1.0" encoding="utf-8"?>
<!-- Generator: Adobe Illustrator 16.2.1, SVG Export Plug-In . SVG Version: 6.00 Build 0)  -->
<!DOCTYPE svg PUBLIC "-//W3C//DTD SVG 1.1//EN" "http://www.w3.org/Graphics/SVG/1.1/DTD/svg11.dtd">
<svg version="1.1" id="Layer_1" xmlns="http://www.w3.org/2000/svg" xmlns:xlink="http://www.w3.org/1999/xlink" x="0px" y="0px"
	 width="300px" height="221px" viewBox="0 0 300 221" enable-background="new 0 0 300 221" xml:space="preserve">
<g>
	<path fill="#D1D1D1" d="M91.893,163.218c-20.594,24.007-42.656,41.343-66.189,52.005l-7.562-16.811
		c19.887-12.657,36.624-26.653,50.217-41.989c13.585-15.334,20.38-31.862,20.38-49.589c0-3.094-0.774-5.765-2.31-8.011
		c-1.543-2.246-4.413-3.368-8.617-3.368c-16.807,1.963-26.616,2.94-29.415,2.94c-9.246,0-18.069-2.521-26.475-7.562
		C8.75,82.709,2.169,70.101,2.169,53.01c0-11.767,4.204-22.76,12.607-32.989C23.182,9.798,36.21,4.682,53.859,4.682
		c20.171,0,36.702,7.722,49.587,23.16c12.886,15.443,19.333,33.126,19.333,53.054C122.779,111.778,112.485,139.22,91.893,163.218z
		 M266.852,161.746c-20.03,24.701-42.236,42.529-66.611,53.477l-7.979-16.811c29.691-17.157,50.431-37.277,62.193-60.35
		c5.884-11.812,8.826-22.641,8.826-32.49c0-3.095-1.049-5.557-3.151-7.382c-2.098-1.826-4.976-2.737-8.619-2.737
		c-16.53,1.963-26.053,2.94-28.574,2.94c-11.209,0-21.786-3.781-31.728-11.346c-9.946-7.562-14.917-18.627-14.917-33.196
		c0-14.009,4.478-25.703,13.448-35.093c8.96-9.38,21.707-14.077,38.243-14.077c19.328,0,35.644,7.513,48.957,22.528
		c13.302,15.024,19.959,34.041,19.959,57.055C296.898,111.213,286.88,137.042,266.852,161.746z"/>
</g>
</svg>
