<?xml version="1.0" encoding="utf-8"?>
<!-- Generator: Adobe Illustrator 16.2.1, SVG Export Plug-In . SVG Version: 6.00 Build 0)  -->
<!DOCTYPE svg PUBLIC "-//W3C//DTD SVG 1.1//EN" "http://www.w3.org/Graphics/SVG/1.1/DTD/svg11.dtd">
<svg version="1.1" id="Layer_1" xmlns="http://www.w3.org/2000/svg" xmlns:xlink="http://www.w3.org/1999/xlink" x="0px" y="0px"
	 width="44px" height="44px" viewBox="0 0 44 44" enable-background="new 0 0 44 44" xml:space="preserve">
<g>
	<g>
		<path fill-rule="evenodd" clip-rule="evenodd" fill="#FFFFFF" d="M10.671,29.256c2.537,0.192,4.682-0.406,6.741-1.946
			c-2.104-0.291-3.504-1.256-4.315-3.192c0.648-0.042,1.212-0.077,1.991-0.126c-2.236-0.896-3.584-2.277-3.681-4.652
			c0.584,0.133,1.131,0.257,1.678,0.381c-1.691-1.865-2.131-3.837-1.045-6.23c2.622,2.937,5.754,4.65,9.691,4.904
			c0-0.432-0.009-0.772,0.001-1.11c0.059-1.863,0.896-3.271,2.543-4.139c1.695-0.892,3.407-0.786,4.914,0.359
			c0.706,0.537,1.284,0.542,1.993,0.245c0.51-0.213,1.016-0.434,1.646-0.704c-0.25,1.04-0.934,1.66-1.66,2.352
			c0.752,0.148,1.349-0.323,2.16-0.338c-0.363,0.659-0.778,1.116-1.259,1.474c-0.674,0.501-0.876,1.104-0.923,1.942
			c-0.26,4.692-2.307,8.481-6.321,10.923c-4.526,2.754-9.237,2.679-13.889,0.118C10.88,29.484,10.84,29.423,10.671,29.256z"/>
	</g>
</g>
</svg>
