<?xml version="1.0" encoding="utf-8"?>
<!-- Generator: Adobe Illustrator 16.2.1, SVG Export Plug-In . SVG Version: 6.00 Build 0)  -->
<!DOCTYPE svg PUBLIC "-//W3C//DTD SVG 1.1//EN" "http://www.w3.org/Graphics/SVG/1.1/DTD/svg11.dtd">
<svg version="1.1" xmlns="http://www.w3.org/2000/svg" xmlns:xlink="http://www.w3.org/1999/xlink" x="0px" y="0px" width="44px"
	 height="44px" viewBox="0 0 44 44" enable-background="new 0 0 44 44" xml:space="preserve">
<g id="tw" display="none">
	<g display="inline">
		<g>
			<path fill-rule="evenodd" clip-rule="evenodd" fill="#FFFFFF" d="M10.671,29.256c2.537,0.192,4.682-0.406,6.741-1.946
				c-2.104-0.291-3.504-1.256-4.315-3.192c0.648-0.042,1.212-0.077,1.991-0.126c-2.236-0.896-3.584-2.277-3.681-4.652
				c0.584,0.133,1.131,0.257,1.678,0.381c-1.691-1.865-2.131-3.837-1.045-6.23c2.622,2.937,5.754,4.65,9.691,4.904
				c0-0.432-0.009-0.772,0.001-1.11c0.059-1.863,0.896-3.271,2.543-4.139c1.695-0.892,3.407-0.786,4.914,0.359
				c0.706,0.537,1.284,0.542,1.993,0.245c0.51-0.213,1.016-0.434,1.646-0.704c-0.25,1.04-0.934,1.66-1.66,2.352
				c0.752,0.148,1.349-0.323,2.16-0.338c-0.363,0.659-0.778,1.116-1.259,1.474c-0.674,0.501-0.876,1.104-0.923,1.942
				c-0.26,4.692-2.307,8.481-6.321,10.923c-4.526,2.754-9.237,2.679-13.889,0.118C10.88,29.484,10.84,29.423,10.671,29.256z"/>
		</g>
	</g>
</g>
<g id="fb" display="none">
	<g display="inline">
		<g>
			<path fill-rule="evenodd" clip-rule="evenodd" fill="#FFFFFF" d="M23.23,17.699c1.348,0,2.578,0,3.879,0
				c-0.154,1.494-0.291,2.843-0.441,4.306c-1.107,0-2.188,0-3.408,0c0,4.146,0,8.179,0,12.289c-1.783,0-3.424,0-5.188,0
				c0-4.07,0-8.107,0-12.225c-0.827,0-1.537,0-2.348,0c0-1.453,0-2.826,0-4.332c0.721,0,1.458,0,2.346,0
				c0-1.021-0.015-1.918,0.003-2.813c0.066-3.37,1.896-5.184,5.251-5.21c1.205-0.01,2.408-0.001,3.736-0.001
				c0,0.494,0,0.865,0,1.237c0,0.941,0,1.883,0,2.969c-0.941,0-1.764-0.015-2.588,0.003c-0.818,0.018-1.258,0.426-1.244,1.279
				C23.24,15.987,23.23,16.774,23.23,17.699z"/>
		</g>
	</g>
</g>
<g id="Layer_3">
	<g>
		<g>
			<path fill-rule="evenodd" clip-rule="evenodd" fill="#FFFFFF" d="M20.06,25.836c-0.629,2.881-1.299,5.653-3.457,7.936
				c-0.104-0.384-0.219-0.656-0.246-0.936c-0.149-1.585-0.162-3.162,0.222-4.727c0.493-2.005,0.971-4.015,1.41-6.033
				c0.097-0.446,0.078-0.949-0.02-1.397c-0.241-1.105-0.294-2.183,0.161-3.244c0.342-0.797,0.867-1.403,1.736-1.642
				c1.066-0.293,2.087,0.31,2.211,1.404c0.068,0.601-0.003,1.241-0.137,1.835c-0.266,1.173-0.679,2.314-0.917,3.492
				c-0.281,1.384,0.661,2.442,2.069,2.448c0.723,0.004,1.38-0.236,1.883-0.729c0.462-0.451,0.905-0.961,1.209-1.526
				c0.941-1.749,1.239-3.656,1.021-5.61c-0.185-1.644-1.062-2.886-2.57-3.639c-3.036-1.515-7.079-0.301-8.61,2.666
				c-0.962,1.863-1.261,3.787,0.069,5.665c0.291,0.41,0.148,1.772-0.228,2.015c-0.183,0.118-0.536,0.112-0.75,0.02
				c-0.931-0.405-1.541-1.15-1.925-2.066c-0.846-2.018-0.778-4.04,0.135-6.012c1.375-2.971,3.809-4.53,6.967-5.05
				c1.908-0.314,3.777-0.172,5.571,0.608c3.283,1.428,5.088,4.646,4.627,8.195c-0.2,1.554-0.521,3.081-1.412,4.384
				c-0.554,0.811-1.219,1.605-1.995,2.193C24.847,27.778,22.32,27.672,20.06,25.836z"/>
		</g>
	</g>
</g>
</svg>
