<?xml version="1.0" encoding="utf-8"?>
<!-- Generator: Adobe Illustrator 16.2.1, SVG Export Plug-In . SVG Version: 6.00 Build 0)  -->
<!DOCTYPE svg PUBLIC "-//W3C//DTD SVG 1.1//EN" "http://www.w3.org/Graphics/SVG/1.1/DTD/svg11.dtd">
<svg version="1.1" xmlns="http://www.w3.org/2000/svg" xmlns:xlink="http://www.w3.org/1999/xlink" x="0px" y="0px" width="44px"
	 height="44px" viewBox="0 0 44 44" enable-background="new 0 0 44 44" xml:space="preserve">
<g id="tw">
	<g>
		<g>
			<path fill-rule="evenodd" clip-rule="evenodd" fill="#90624D" d="M10.671,29.256c2.537,0.192,4.682-0.406,6.741-1.946
				c-2.104-0.291-3.504-1.256-4.315-3.192c0.648-0.042,1.212-0.077,1.991-0.126c-2.236-0.896-3.584-2.277-3.681-4.652
				c0.584,0.133,1.131,0.257,1.678,0.381c-1.691-1.865-2.131-3.837-1.045-6.23c2.622,2.937,5.754,4.65,9.691,4.904
				c0-0.432-0.009-0.772,0.001-1.11c0.059-1.863,0.896-3.271,2.543-4.139c1.695-0.892,3.407-0.786,4.914,0.359
				c0.706,0.537,1.284,0.542,1.993,0.245c0.51-0.213,1.016-0.434,1.646-0.704c-0.25,1.04-0.934,1.66-1.66,2.352
				c0.752,0.148,1.349-0.323,2.16-0.338c-0.363,0.659-0.778,1.116-1.259,1.474c-0.674,0.501-0.876,1.104-0.923,1.942
				c-0.26,4.692-2.307,8.481-6.321,10.923c-4.526,2.754-9.237,2.679-13.889,0.118C10.88,29.484,10.84,29.423,10.671,29.256z"/>
		</g>
	</g>
</g>
<g id="fb" display="none">
	<g display="inline">
		<g>
			<path fill-rule="evenodd" clip-rule="evenodd" fill="#90624D" d="M23.23,17.699c1.348,0,2.578,0,3.879,0
				c-0.154,1.494-0.291,2.843-0.441,4.306c-1.107,0-2.188,0-3.408,0c0,4.146,0,8.179,0,12.289c-1.783,0-3.424,0-5.188,0
				c0-4.07,0-8.107,0-12.225c-0.827,0-1.537,0-2.348,0c0-1.453,0-2.826,0-4.332c0.721,0,1.458,0,2.346,0
				c0-1.021-0.015-1.918,0.003-2.813c0.066-3.37,1.896-5.184,5.251-5.21c1.205-0.01,2.408-0.001,3.736-0.001
				c0,0.494,0,0.865,0,1.237c0,0.941,0,1.883,0,2.969c-0.941,0-1.764-0.015-2.588,0.003c-0.818,0.018-1.258,0.426-1.244,1.279
				C23.24,15.987,23.23,16.774,23.23,17.699z"/>
		</g>
	</g>
</g>
<g id="pin" display="none">
	<g display="inline">
		<g>
			<path fill-rule="evenodd" clip-rule="evenodd" fill="#90624D" d="M20.06,25.836c-0.629,2.881-1.299,5.653-3.457,7.936
				c-0.104-0.384-0.219-0.656-0.246-0.936c-0.149-1.585-0.162-3.162,0.222-4.727c0.493-2.005,0.971-4.015,1.41-6.033
				c0.097-0.446,0.078-0.949-0.02-1.397c-0.241-1.105-0.294-2.183,0.161-3.244c0.342-0.797,0.867-1.403,1.736-1.642
				c1.066-0.293,2.087,0.31,2.211,1.404c0.068,0.601-0.003,1.241-0.137,1.835c-0.266,1.173-0.679,2.314-0.917,3.492
				c-0.281,1.384,0.661,2.442,2.069,2.448c0.723,0.004,1.38-0.236,1.883-0.729c0.462-0.451,0.905-0.961,1.209-1.526
				c0.941-1.749,1.239-3.656,1.021-5.61c-0.185-1.644-1.062-2.886-2.57-3.639c-3.036-1.515-7.079-0.301-8.61,2.666
				c-0.962,1.863-1.261,3.787,0.069,5.665c0.291,0.41,0.148,1.772-0.228,2.015c-0.183,0.118-0.536,0.112-0.75,0.02
				c-0.931-0.405-1.541-1.15-1.925-2.066c-0.846-2.018-0.778-4.04,0.135-6.012c1.375-2.971,3.809-4.53,6.967-5.05
				c1.908-0.314,3.777-0.172,5.571,0.608c3.283,1.428,5.088,4.646,4.627,8.195c-0.2,1.554-0.521,3.081-1.412,4.384
				c-0.554,0.811-1.219,1.605-1.995,2.193C24.847,27.778,22.32,27.672,20.06,25.836z"/>
		</g>
	</g>
</g>
<g id="inst" display="none">
	<g display="inline">
		<g>
			<path fill-rule="evenodd" clip-rule="evenodd" fill="#90624D" d="M26.455,17.296c2.061,0,4.109,0,6.189,0
				c0.005,0.084,0.016,0.175,0.016,0.266c0,3.108,0.005,6.216-0.001,9.326c-0.004,2.284-1.894,4.161-4.179,4.161
				c-4.32,0.002-8.641,0.002-12.961,0c-2.246,0-4.148-1.852-4.162-4.096c-0.019-3.149-0.004-6.304-0.004-9.455
				c0-0.06,0.007-0.119,0.013-0.2c2.051,0,4.095,0,6.175,0c-0.952,1.434-1.233,2.964-0.79,4.601
				c0.331,1.219,1.031,2.199,2.049,2.949c2.009,1.478,4.81,1.358,6.732-0.271C27.401,22.989,28.228,19.934,26.455,17.296z"/>
			<path fill-rule="evenodd" clip-rule="evenodd" fill="#90624D" d="M14.608,9.78c0,1.704,0,3.407,0,5.134c0.293,0,0.563,0,0.86,0
				c0-1.75,0-3.496,0-5.258c0.205,0,0.382,0,0.589,0c0,1.749,0,3.493,0,5.259c0.299,0,0.57,0,0.868,0c0-1.753,0-3.499,0-5.277
				c0.137,0,0.248,0,0.358,0c3.732,0,7.465,0,11.197,0c2.244,0,4.119,1.814,4.175,4.059c0.024,0.917,0.005,1.836,0.004,2.754
				c0,0.051-0.01,0.101-0.018,0.177c-0.093,0-0.177,0-0.261,0c-2.087,0-4.175,0.003-6.262-0.006
				c-0.137-0.001-0.305-0.065-0.404-0.158c-2.118-1.964-5.371-1.953-7.472,0.03c-0.072,0.069-0.189,0.129-0.286,0.129
				c-2.156,0.007-4.313,0.005-6.469,0.004c-0.035,0-0.068-0.007-0.099-0.01c-0.008-0.012-0.016-0.02-0.016-0.027
				c0.008-1.261-0.152-2.529,0.114-3.776c0.204-0.958,0.861-1.878,1.648-2.393c0,1.511,0,3,0,4.502c0.298,0,0.56,0,0.852,0
				c0-0.117,0-0.219,0-0.32c0-1.412,0-2.824,0-4.235C13.987,9.888,14.074,9.803,14.608,9.78z M27.116,13.238
				c0,0.381-0.004,0.762,0.001,1.143c0.005,0.413,0.27,0.685,0.681,0.688c0.743,0.004,1.488,0.004,2.232,0
				c0.41-0.003,0.684-0.275,0.688-0.685c0.006-0.762,0.007-1.523,0-2.285c-0.004-0.402-0.262-0.681-0.657-0.687
				c-0.762-0.012-1.525-0.013-2.286,0c-0.4,0.006-0.652,0.284-0.657,0.684C27.112,12.476,27.116,12.857,27.116,13.238z"/>
			<path fill-rule="evenodd" clip-rule="evenodd" fill="#90624D" d="M21.985,24.64c-2.327,0-4.215-1.891-4.205-4.213
				c0.01-2.31,1.897-4.188,4.206-4.19c2.328-0.001,4.212,1.881,4.211,4.204C26.196,22.772,24.321,24.64,21.985,24.64z
				 M22.007,17.346c-1.704,0-3.092,1.382-3.093,3.081c-0.001,1.719,1.382,3.113,3.092,3.113c1.697,0,3.092-1.389,3.092-3.085
				C25.099,18.731,23.724,17.347,22.007,17.346z"/>
		</g>
	</g>
</g>
</svg>
